<svg width="41" height="41" viewBox="0 0 41 41" fill="none" xmlns="http://www.w3.org/2000/svg">
<g clip-path="url(#clip0_2409_991)">
<path d="M34.5291 6.44635C34.536 7.17634 34.543 7.90634 34.5499 8.63634L34.5545 10.8275L34.543 10.8298C33.9101 10.8286 33.2772 10.8367 32.6454 10.8206C32.4121 10.8148 32.3347 10.8968 32.359 11.1186C32.3717 11.2318 32.3613 11.3484 32.3613 11.4639C32.3601 13.3998 32.3578 15.3357 32.3567 17.2716C31.7295 17.2727 31.1024 17.2808 30.4753 17.2739C30.2662 17.2716 30.1658 17.3155 30.175 17.5557C30.1935 18.0686 30.1889 18.5814 30.175 19.0943C30.1715 19.2398 30.2512 19.3414 30.287 19.465C30.287 20.0402 30.2905 20.6166 30.2859 21.1918C30.2824 21.595 30.2328 21.6423 29.8204 21.6469C29.3412 21.6516 28.8607 21.6608 28.3814 21.6435C28.1423 21.6342 28.0904 21.7289 28.095 21.9449C28.1077 22.4439 28.0869 22.9429 28.1042 23.4407C28.1123 23.6787 28.0222 23.7341 27.8051 23.7295C27.2877 23.718 26.7691 23.7226 26.2506 23.7272C25.9214 23.7295 25.9179 23.7353 25.9145 24.0818C25.9099 24.5427 25.9133 25.0024 25.9145 25.4633C25.9145 25.9703 25.9468 25.9103 25.4398 25.9114C25.0367 25.9126 24.6337 25.9103 24.2306 25.9114C23.6681 25.9137 23.7282 25.8525 23.727 26.3873C23.7259 26.8482 23.7305 27.3079 23.7259 27.7688C23.7224 28.0875 23.7178 28.0922 23.421 28.0968C23.0757 28.1026 22.7303 28.0979 22.385 28.0979C21.5026 28.0979 20.6203 28.1014 19.7368 28.0956C19.5531 28.0945 19.4411 28.1303 19.4619 28.3451C19.4746 28.478 19.4642 28.6131 19.4642 28.7482C19.4642 29.1317 19.47 29.5164 19.4619 29.8998C19.455 30.2013 19.388 30.2671 19.0992 30.2845C18.9849 30.2914 18.8694 30.2845 18.7539 30.2845C17.6406 30.2845 16.5284 30.2822 15.415 30.2856C15.1009 30.2856 15.0962 30.2937 15.0928 30.5952C15.0882 31.0561 15.0882 31.5158 15.0928 31.9766C15.0974 32.3694 15.0986 32.3624 14.7255 32.3613C13.6318 32.3578 12.5381 32.359 11.4444 32.3613C8.35493 32.3636 5.26664 32.367 2.17721 32.3705L2.16797 32.3809C2.17259 31.7676 2.17374 31.1542 2.18183 30.5409C2.18645 30.1944 2.19107 30.1886 2.52484 30.1863C3.00414 30.1817 3.48343 30.1851 3.96273 30.1851C6.74264 30.1851 9.52141 30.1851 12.3013 30.1851C12.4168 30.1851 12.5323 30.177 12.6466 30.1863C12.8441 30.2036 12.9157 30.1228 12.9123 29.9241C12.903 29.4447 12.9123 28.9654 12.9077 28.486C12.903 28.0656 12.91 28.0887 13.3246 28.0899C14.4749 28.0922 15.6252 28.0922 16.7755 28.0899C17.2467 28.0887 17.2641 28.0702 17.2687 27.6128C17.2733 27.1531 17.2664 26.6922 17.271 26.2325C17.2744 25.9195 17.2802 25.9103 17.5817 25.9103C18.732 25.9068 19.8823 25.9103 21.0326 25.9079C21.6124 25.9079 21.5454 25.9703 21.5488 25.3847C21.5512 24.9816 21.5454 24.5796 21.55 24.1765C21.5558 23.7607 21.5835 23.7353 22.0166 23.7307C22.4762 23.726 22.9371 23.733 23.3967 23.7283C23.7132 23.7249 23.719 23.7203 23.7224 23.4199C23.727 22.8828 23.7293 22.3469 23.7224 21.8098C23.7201 21.6169 23.7802 21.5384 23.9846 21.543C24.5401 21.5545 25.0968 21.5407 25.6523 21.5499C25.8521 21.5534 25.9179 21.4771 25.9133 21.2819C25.9041 20.8026 25.9156 20.3232 25.9087 19.8439C25.9041 19.4419 25.9191 19.4512 26.2737 19.4546C26.753 19.4592 27.2323 19.4431 27.7115 19.4604C27.9506 19.4696 28.0014 19.3715 28.0003 19.1589C27.9933 17.9704 27.9957 16.7818 27.998 15.5933C27.9991 15.0296 27.9229 15.0908 28.5315 15.0873C28.9727 15.085 29.4139 15.0908 29.8539 15.0862C30.1715 15.0827 30.1762 15.0781 30.1808 14.7789C30.1866 14.4532 30.1819 14.1275 30.1819 13.8018C30.1819 11.4443 30.1819 9.08566 30.1831 6.72818C30.1831 6.63347 30.2016 6.53875 30.212 6.44519C30.9292 6.44519 31.6452 6.44519 32.3624 6.44519C33.0843 6.44519 33.8061 6.44519 34.5279 6.44519L34.5291 6.44635Z" fill="#DCE300"/>
<path d="M32.3627 6.44519C31.6455 6.44519 30.9294 6.44519 30.2122 6.44519C30.203 5.24393 30.1926 4.04383 30.1857 2.84256C30.1822 2.17956 30.1857 2.17956 29.5262 2.17956C29.1254 2.17956 28.7247 2.18418 28.3239 2.1784C28.0098 2.17378 28.0017 2.16916 28.0005 1.86885C27.9982 1.25898 28.004 0.64795 28.0075 0.0380784C28.6727 -0.0300701 29.3391 0.0138222 30.0055 0.00920195C30.7862 0.00342665 31.5681 0.0161323 32.3488 0.0207525C32.3546 0.728804 32.3604 1.43801 32.3662 2.14606C32.3639 3.57949 32.3627 5.01177 32.3604 6.44519H32.3627Z" fill="#83785D"/>
<path d="M0.0323634 36.7124C-0.0149887 35.2663 -0.00459436 33.8201 0.0265887 32.374C0.740335 32.3763 1.45408 32.3786 2.16783 32.3798L2.17707 32.3694C2.17938 33.8236 2.18169 35.2767 2.18515 36.7309L2.18862 36.7228C1.47025 36.7193 0.751884 36.7159 0.0335183 36.7124H0.0323634Z" fill="#171610"/>
<path d="M38.8052 12.9031C38.811 13.625 38.8156 14.3458 38.8214 15.0677C38.8214 17.9577 38.8214 20.8476 38.8214 23.7376L38.8248 23.7341C38.2347 23.7306 37.6456 23.7237 37.0555 23.726C36.746 23.726 36.7379 23.7341 36.7379 24.0356C36.7333 25.387 36.7333 26.7373 36.7321 28.0887L36.7275 28.0933C36.1373 28.0945 35.5483 28.0979 34.9581 28.0979C34.5678 28.0979 34.5447 28.0459 34.547 28.4895C34.5527 29.7832 34.5527 31.0757 34.5551 32.3693L34.5585 32.3647C33.2638 32.3636 31.9703 32.3589 30.6756 32.3612C30.2044 32.3612 30.1779 32.3924 30.1756 32.8903C30.1733 33.4424 30.1756 33.9945 30.1756 34.5455C28.882 34.5455 27.5885 34.5489 26.295 34.5455C25.8954 34.5455 25.9093 34.5512 25.9116 34.9082C25.915 35.5169 25.9116 36.1256 25.9116 36.7343V36.7331C23.9586 36.7331 22.0044 36.7308 20.0515 36.7355C19.3735 36.7366 19.4705 36.6384 19.4636 37.2957C19.459 37.6976 19.4671 38.0996 19.4613 38.5015C19.4578 38.7995 19.452 38.8065 19.1356 38.8076C18.2163 38.8111 17.2969 38.8076 16.3776 38.8088C13.0653 38.8111 9.75179 38.8146 6.43945 38.818L6.44292 38.8215C6.44523 38.1238 6.44754 37.4262 6.44985 36.7285V36.7251C7.44655 36.7274 8.44441 36.732 9.44111 36.7331C11.2058 36.7343 12.9717 36.7343 14.7365 36.7331C15.0795 36.7331 15.0853 36.7262 15.0876 36.3947C15.0922 35.7802 15.091 35.1669 15.0922 34.5524C15.8175 34.5489 16.5439 34.5443 17.2692 34.5408C17.8444 34.5432 18.4195 34.5489 18.9947 34.5455C19.4082 34.5432 19.4578 34.4935 19.4624 34.0927C19.4694 33.5175 19.4671 32.9422 19.4694 32.367C20.1589 32.3647 20.8495 32.3624 21.539 32.3601C22.1835 32.3601 22.8267 32.3532 23.4712 32.3624C23.671 32.3659 23.7311 32.2908 23.7276 32.099C23.7195 31.4926 23.7241 30.8862 23.7253 30.281C24.4506 30.2787 25.1747 30.2764 25.9 30.2741C26.3978 30.2775 26.8956 30.2879 27.3922 30.2833C27.9154 30.2787 27.9835 30.2071 27.9858 29.7058C27.987 29.1698 27.9858 28.6339 27.9858 28.0979C28.6187 28.0979 29.2516 28.0887 29.8845 28.1014C30.1097 28.106 30.1836 28.039 30.179 27.8092C30.1652 27.1762 30.1744 26.5432 30.1744 25.9102C30.7854 25.9102 31.3963 25.9114 32.0073 25.9079C32.3515 25.9056 32.3561 25.901 32.3595 25.573C32.3653 24.9619 32.3653 24.3509 32.3676 23.7399L32.3618 23.7237C32.9947 23.7249 33.6276 23.7179 34.2594 23.733C34.4904 23.7387 34.5504 23.6567 34.5493 23.4349C34.5377 21.3836 34.5354 19.3333 34.5308 17.2819C34.5343 15.1312 34.5389 12.9793 34.5424 10.8286L34.5539 10.8263C35.285 10.824 36.016 10.8217 36.7471 10.8194L36.7425 10.8159C36.7402 11.4038 36.7333 11.9918 36.7356 12.5785C36.7367 12.8904 36.7436 12.8973 37.0405 12.8996C37.6283 12.9043 38.2162 12.902 38.804 12.9031H38.8052Z" fill="#DCE300"/>
<path d="M6.43786 38.8181C9.7502 38.8146 13.0637 38.8112 16.376 38.8089C17.2954 38.8089 18.2147 38.8112 19.134 38.8077C19.4504 38.8066 19.4562 38.7996 19.4597 38.5016C19.4655 38.0997 19.4574 37.6977 19.462 37.2957C19.4689 36.6385 19.3719 36.7367 20.0499 36.7355C22.0028 36.7309 23.957 36.7332 25.91 36.7332C25.91 37.3084 25.9123 37.8837 25.9077 38.4589C25.9054 38.8181 25.8996 38.8239 25.5196 38.825C24.4259 38.8285 23.3333 38.825 22.2396 38.825C22.1241 38.825 22.0086 38.8193 21.8943 38.825C21.6102 38.8412 21.5617 38.8805 21.5559 39.1646C21.5466 39.6243 21.5524 40.0852 21.5536 40.5461C21.5559 41.0393 21.5778 40.9989 21.0766 40.9977C21.0385 40.9977 21.0004 40.9977 20.9611 40.9977C16.3194 40.9977 11.6778 40.9977 7.03611 40.9965C6.36279 40.9965 6.45749 41.0855 6.44941 40.4294C6.44363 39.8923 6.44017 39.3552 6.43555 38.8193L6.43786 38.8181Z" fill="#171610"/>
<path d="M38.7949 23.8049C38.7949 20.1316 38.7949 16.4583 38.7949 12.7849C39.415 12.7937 40.0339 12.8011 40.654 12.8128C40.9891 12.8201 40.9961 12.8246 40.9973 13.2621C40.9996 15.4555 40.9985 17.6475 40.9985 19.8409C40.9985 21.011 41.0008 22.1797 40.9973 23.3498C40.9961 23.7888 40.9891 23.7961 40.6551 23.8005C40.0351 23.8079 39.415 23.8049 38.7949 23.8064V23.8049Z" fill="#171610"/>
<path d="M30.1749 34.5455C30.1749 33.9934 30.1725 33.4413 30.1749 32.8903C30.1772 32.3925 30.2037 32.3625 30.6749 32.3613C31.9685 32.3602 33.2631 32.3636 34.5578 32.3648C34.5532 32.9978 34.5382 33.6296 34.5486 34.2625C34.5532 34.4982 34.4643 34.5525 34.2483 34.5513C32.9259 34.5432 31.6024 34.5455 30.2788 34.5444C30.2442 34.5467 30.2095 34.5467 30.1749 34.5444V34.5455Z" fill="#171610"/>
<path d="M30.1747 34.5455C30.2094 34.5467 30.244 34.5467 30.2787 34.5455C30.2741 35.1196 30.2718 35.6937 30.2648 36.2666C30.259 36.6974 30.2394 36.7205 29.8132 36.7228C28.5128 36.7298 27.2112 36.7321 25.9107 36.7355C25.9107 36.1268 25.9142 35.5181 25.9107 34.9094C25.9084 34.5525 25.8957 34.5455 26.2942 34.5467C27.5877 34.5502 28.8812 34.5467 30.1747 34.5467V34.5455Z" fill="#171610"/>
<path d="M32.1848 6.6129C32.1871 4.40801 32.1882 2.20489 32.1906 0C32.8225 0.00888353 33.4545 0.0284272 34.0864 0.023097C34.3017 0.023097 34.3902 0.111932 34.3879 0.469051C34.3727 2.51759 34.3716 4.56436 34.3657 6.6129C33.6384 6.6129 32.911 6.6129 32.1836 6.6129H32.1848Z" fill="#171610"/>
<path d="M34.5551 32.3693C34.5528 31.0756 34.5528 29.7831 34.547 28.4894C34.5447 28.0459 34.5678 28.0979 34.9582 28.0979C35.5483 28.0979 36.1373 28.0956 36.7275 28.0933C36.7275 29.3581 36.7275 30.6228 36.7252 31.8865C36.7252 32.3935 36.7922 32.3693 36.2228 32.3681C35.6673 32.3681 35.1118 32.3681 34.5563 32.3681L34.5551 32.3693Z" fill="#171610"/>
<path d="M36.7305 28.0875C36.7316 26.7361 36.7316 25.3858 36.7362 24.0344C36.7362 23.7329 36.7443 23.726 37.0538 23.7248C37.644 23.7225 38.233 23.7294 38.8232 23.7329C38.8209 24.9965 38.8209 26.2613 38.8174 27.525C38.8151 28.1695 38.8786 28.0829 38.2815 28.0863C37.7641 28.0898 37.2479 28.0863 36.7305 28.0863V28.0875Z" fill="#171610"/>
<path d="M6.45022 36.7286C6.44791 37.4262 6.4456 38.1239 6.44329 38.8215C5.14399 38.8227 3.84469 38.8215 2.54655 38.8261C2.22895 38.8261 2.16543 38.8631 2.17467 38.4415C2.18622 37.8686 2.18506 37.2957 2.18968 36.7228L2.18622 36.7309C3.60793 36.7309 5.02965 36.7286 6.45253 36.7286H6.45022Z" fill="#171610"/>
<path d="M36.7467 10.8195C36.0156 10.8218 35.2845 10.8241 34.5534 10.8264L34.5488 8.63525C35.1783 8.6364 35.8077 8.6468 36.4371 8.63525C36.6623 8.63178 36.7305 8.70686 36.7282 8.9321C36.7212 9.5616 36.7386 10.19 36.7455 10.8195H36.7467Z" fill="#171610"/>
<path d="M38.8053 12.9032C38.2175 12.9032 37.6296 12.9055 37.0418 12.8997C36.7449 12.8974 36.738 12.8904 36.7369 12.5786C36.7345 11.9907 36.7403 11.4027 36.7438 10.816C37.3328 10.8148 37.9218 10.809 38.5108 10.8125C38.8088 10.8148 38.8157 10.8217 38.8169 11.1359C38.818 11.725 38.81 12.3141 38.8053 12.902V12.9032Z" fill="#171610"/>
<path d="M6.45018 36.7285C5.02846 36.7285 3.60674 36.7308 2.18387 36.7308C2.18156 35.2766 2.17925 33.8235 2.17578 32.3693C5.26522 32.3659 8.3535 32.3624 11.4429 32.3601C12.5367 32.3601 13.6304 32.3578 14.7241 32.3601C15.0971 32.3612 15.096 32.367 15.0914 31.9755C15.0867 31.5146 15.0867 31.0549 15.0914 30.594C15.0948 30.2925 15.1006 30.2844 15.4136 30.2844C16.5269 30.281 17.6391 30.2833 18.7525 30.2833C18.868 30.2833 18.9835 30.2891 19.0978 30.2833C19.3865 30.266 19.4535 30.2001 19.4605 29.8987C19.4685 29.5152 19.4628 29.1317 19.4628 28.7471C19.4628 28.6131 19.4732 28.4779 19.4605 28.3439C19.4408 28.1291 19.5517 28.0933 19.7353 28.0945C20.6177 28.1002 21.5001 28.0968 22.3836 28.0968C22.7289 28.0968 23.0742 28.1014 23.4196 28.0956C23.7164 28.091 23.721 28.0864 23.7245 27.7676C23.7291 27.3067 23.7245 26.847 23.7256 26.3861C23.7279 25.8513 23.6679 25.9125 24.2292 25.9102C24.6322 25.9079 25.0353 25.9102 25.4384 25.9102C25.9454 25.9091 25.913 25.9691 25.913 25.4621C25.913 25.0012 25.9096 24.5415 25.913 24.0806C25.9165 23.7341 25.92 23.7295 26.2491 23.726C26.7677 23.7214 27.2851 23.7168 27.8037 23.7283C28.0208 23.7329 28.1109 23.6775 28.1028 23.4396C28.0855 22.9417 28.1063 22.4416 28.0936 21.9438C28.0878 21.7278 28.1409 21.6342 28.38 21.6423C28.8593 21.6596 29.3397 21.6515 29.819 21.6458C30.2313 21.6411 30.2798 21.5938 30.2845 21.1907C30.2902 20.6154 30.2856 20.0391 30.2856 19.4638C30.8758 19.4638 31.4648 19.4592 32.055 19.4638C32.3506 19.4662 32.3587 19.4731 32.3587 19.7873C32.3622 21.1006 32.361 22.4127 32.361 23.726L32.3668 23.7422C31.7223 23.7364 31.0791 23.7364 30.4346 23.7226C30.2429 23.7191 30.1678 23.778 30.1713 23.979C30.1805 24.6235 30.1747 25.268 30.1736 25.9125C29.5407 25.9125 28.9078 25.9206 28.2749 25.9068C28.0474 25.9021 27.9769 25.9738 27.9827 26.2013C27.9954 26.8343 27.9861 27.4673 27.985 28.0991C27.3914 28.0991 26.7977 28.106 26.2052 28.0933C25.987 28.0887 25.9027 28.1453 25.9061 28.3798C25.9177 29.0104 25.9027 29.6422 25.8992 30.2741C25.1739 30.2764 24.4498 30.2787 23.7245 30.281C23.699 30.1955 23.6401 30.1701 23.5535 30.1712C23.0165 30.1747 22.4794 30.1678 21.9436 30.1759C21.6086 30.1805 21.5463 30.2429 21.5416 30.5778C21.5336 31.1715 21.5393 31.7664 21.5393 32.3612C20.8498 32.3636 20.1592 32.3659 19.4697 32.3682C18.8368 32.3659 18.2039 32.3705 17.5721 32.3566C17.355 32.352 17.2661 32.4051 17.2707 32.6419C17.2846 33.2749 17.2719 33.9079 17.2707 34.5397C16.5454 34.5431 15.819 34.5478 15.0937 34.5512C13.8856 34.5489 12.6776 34.5466 11.4695 34.5455C9.91612 34.5455 8.36274 34.5443 6.80936 34.5455C6.46404 34.5455 6.45942 34.5524 6.45595 34.8816C6.45018 35.4949 6.45133 36.1094 6.45018 36.7227V36.7262V36.7285Z" fill="#F8FAC7"/>
<path d="M32.3617 23.7249C32.3617 22.4116 32.3629 21.0995 32.3594 19.7862C32.3594 19.472 32.3513 19.4651 32.0557 19.4627C31.4655 19.4581 30.8765 19.4627 30.2863 19.4627C30.2505 19.3392 30.1708 19.2375 30.1743 19.092C30.1881 18.5791 30.1916 18.0651 30.1743 17.5534C30.1662 17.312 30.2655 17.2681 30.4746 17.2716C31.1017 17.2797 31.7288 17.2716 32.3559 17.2693C33.0812 17.2728 33.8054 17.2774 34.5307 17.2808C34.5353 19.3322 34.5376 21.3825 34.5492 23.4338C34.5503 23.6556 34.4903 23.7376 34.2593 23.7318C33.6264 23.7168 32.9946 23.7249 32.3617 23.7226V23.7249Z" fill="#F8FAC7"/>
<path d="M34.5302 17.2819C33.8049 17.2785 33.0808 17.2738 32.3555 17.2704C32.3566 15.3345 32.3589 13.3986 32.3601 11.4627C32.3601 11.3472 32.3705 11.2317 32.3578 11.1174C32.3335 10.8968 32.4109 10.8136 32.6442 10.8194C33.2759 10.8355 33.9088 10.8263 34.5417 10.8286C34.5383 12.9793 34.5337 15.1312 34.5302 17.2819Z" fill="#F8FAC7"/>
<path d="M6.44922 36.725C6.45037 36.1117 6.44922 35.4972 6.45499 34.8839C6.45846 34.5547 6.46308 34.5478 6.8084 34.5478C8.36178 34.5454 9.91516 34.5454 11.4685 34.5478C12.6766 34.5478 13.8847 34.5512 15.0927 34.5535C15.0927 35.168 15.0927 35.7814 15.0881 36.3958C15.0858 36.7274 15.08 36.7343 14.737 36.7343C12.9723 36.7366 11.2064 36.7366 9.44164 36.7343C8.44378 36.7343 7.44592 36.7297 6.44922 36.7262V36.725Z" fill="#DCE300"/>
<path d="M30.1743 25.9114C30.1743 25.2669 30.1812 24.6224 30.172 23.9779C30.1685 23.7769 30.2436 23.7168 30.4353 23.7214C31.0798 23.7341 31.7231 23.7353 32.3675 23.7411C32.3652 24.3521 32.3652 24.9631 32.3594 25.5742C32.356 25.9022 32.3513 25.9068 32.0072 25.9091C31.3962 25.9137 30.7853 25.9114 30.1743 25.9114Z" fill="#DCE300"/>
<path d="M27.9849 28.0979C27.9849 27.4649 27.9953 26.832 27.9826 26.2001C27.978 25.9726 28.0485 25.901 28.2748 25.9056C28.9077 25.9195 29.5406 25.9114 30.1735 25.9125C30.1735 26.5455 30.1643 27.1785 30.1782 27.8115C30.1828 28.0402 30.1089 28.1083 29.8836 28.1037C29.2507 28.091 28.6178 28.0991 27.9849 28.0991V28.0979Z" fill="#DCE300"/>
<path d="M21.5386 32.3602C21.5386 31.7653 21.534 31.1716 21.5409 30.5767C21.5455 30.2418 21.6079 30.1806 21.9428 30.1748C22.4799 30.1667 23.0169 30.1725 23.5528 30.1702C23.6394 30.1702 23.6983 30.1956 23.7237 30.2799C23.7237 30.8863 23.718 31.4927 23.7261 32.098C23.7284 32.2897 23.6695 32.3636 23.4697 32.3613C22.8252 32.3521 22.1819 32.359 21.5375 32.359L21.5386 32.3602Z" fill="#DCE300"/>
<path d="M17.2687 34.5397C17.271 33.9067 17.2826 33.2737 17.2687 32.6419C17.2641 32.404 17.353 32.352 17.5702 32.3566C18.2031 32.3705 18.836 32.3658 19.4677 32.3681C19.4654 32.9434 19.4677 33.5186 19.4608 34.0938C19.4562 34.4935 19.4054 34.5443 18.993 34.5466C18.4179 34.5501 17.8427 34.5443 17.2676 34.542L17.2687 34.5397Z" fill="#DCE300"/>
<path d="M25.8984 30.274C25.9031 29.6422 25.9169 29.0104 25.9054 28.3797C25.9007 28.1441 25.9862 28.0875 26.2045 28.0933C26.7981 28.106 27.3906 28.0991 27.9842 28.0991C27.9842 28.635 27.9865 29.171 27.9842 29.7069C27.9831 30.207 27.9138 30.2787 27.3906 30.2844C26.8928 30.2891 26.3951 30.2787 25.8984 30.2752V30.274Z" fill="#DCE300"/>
</g>
<defs>
<clipPath id="clip0_2409_991">
<rect width="41" height="41" fill="white"/>
</clipPath>
</defs>
</svg>
