<svg width="13" height="19" viewBox="0 0 13 19" fill="none" xmlns="http://www.w3.org/2000/svg">
<path d="M9.28559 1.88034L9.28559 3.76069L11.1428 3.76069L11.1428 5.64103L13 5.64103L13 7.71837L11.1428 7.71837L9.28559 7.71837L9.28559 15.2393L7.42839 15.2393L7.42839 17.1197L5.57161 17.1197L5.57161 19L3.71441 19L1.8572 19L-9.53674e-07 19L-8.71482e-07 17.1197L1.8572 17.1197L1.8572 15.2393L3.71441 15.2393L3.71441 7.71837L1.8572 7.71837L-4.60539e-07 7.71837L-3.69735e-07 5.64103L1.8572 5.64103L1.8572 3.76069L3.71441 3.76069L3.71441 1.88034L5.57161 1.88034L5.57161 -3.24705e-07L7.42839 -2.43543e-07L7.42839 1.88034L9.28559 1.88034Z" fill="#14F427"/>
</svg>
