<svg width="13" height="13" viewBox="0 0 13 13" fill="none" xmlns="http://www.w3.org/2000/svg">
<path d="M9.46236 1.78778L1.78776 1.78778C1.29372 1.78778 0.8939 1.38796 0.8939 0.893918C0.8939 0.399874 1.29372 5.2339e-05 1.78776 5.22958e-05L10.8573 5.15029e-05C11.7696 5.14232e-05 12.5141 0.737332 12.5141 1.65686L12.5141 10.7264C12.5141 11.2205 12.1143 11.6203 11.6202 11.6203C11.1262 11.6203 10.7264 11.2205 10.7264 10.7264L10.7264 3.05181L1.52591 12.2523C1.17678 12.6014 0.611126 12.6014 0.261888 12.2523C-0.0873488 11.9032 -0.0872437 11.3375 0.261888 10.9883L9.46236 1.78778Z" fill="white"/>
</svg>
