<svg width="10" height="13" viewBox="0 0 10 13" fill="none" xmlns="http://www.w3.org/2000/svg">
<path d="M3.9708 2.62806L1.31783 5.28103C1.25086 5.3529 1.1701 5.41055 1.08037 5.45053C0.990634 5.49051 0.893767 5.51201 0.795546 5.51374C0.697324 5.51547 0.599762 5.49741 0.508675 5.46061C0.417588 5.42382 0.334844 5.36906 0.265381 5.2996C0.195917 5.23013 0.141156 5.14739 0.104364 5.0563C0.0675723 4.96522 0.049505 4.86765 0.0512378 4.76943C0.0529706 4.67121 0.0744693 4.57434 0.114451 4.48461C0.154433 4.39488 0.212078 4.31412 0.283949 4.24715L4.18538 0.345718C4.32254 0.208729 4.50847 0.131784 4.70232 0.131784C4.89617 0.131784 5.0821 0.208729 5.21926 0.345718L9.12069 4.24715C9.19256 4.31412 9.25021 4.39488 9.29019 4.48461C9.33017 4.57434 9.35167 4.67121 9.3534 4.76943C9.35514 4.86765 9.33707 4.96522 9.30028 5.0563C9.26348 5.14739 9.20872 5.23013 9.13926 5.2996C9.0698 5.36906 8.98705 5.42382 8.89597 5.46062C8.80488 5.49741 8.70731 5.51547 8.60909 5.51374C8.51087 5.51201 8.41401 5.49051 8.32427 5.45053C8.23454 5.41055 8.15378 5.3529 8.08681 5.28103L5.43384 2.62806L5.43384 12.0793C5.43384 12.2733 5.35677 12.4593 5.21958 12.5965C5.08239 12.7337 4.89633 12.8108 4.70232 12.8108C4.50831 12.8108 4.32224 12.7337 4.18506 12.5965C4.04787 12.4593 3.9708 12.2733 3.9708 12.0793L3.9708 2.62806Z" fill="#222222"/>
</svg>
