<svg width="15" height="15" viewBox="0 0 15 15" fill="none" xmlns="http://www.w3.org/2000/svg">
<path d="M13.4296 3.14329C13.1265 3.14329 12.8358 3.26371 12.6214 3.47805C12.4071 3.69238 12.2867 3.98309 12.2867 4.28621V10.6751L2.81189 1.18891C2.59667 0.97369 2.30478 0.852783 2.00041 0.852783C1.69605 0.852783 1.40416 0.97369 1.18894 1.18891C0.973728 1.40412 0.852821 1.69602 0.852821 2.00038C0.852821 2.30474 0.973728 2.59663 1.18894 2.81185L10.6752 12.2866H4.28625C3.98313 12.2866 3.69242 12.407 3.47808 12.6214C3.26375 12.8357 3.14333 13.1264 3.14333 13.4295C3.14333 13.7327 3.26375 14.0234 3.47808 14.2377C3.69242 14.452 3.98313 14.5725 4.28625 14.5725H13.4296C13.7327 14.5725 14.0234 14.452 14.2377 14.2377C14.4521 14.0234 14.5725 13.7327 14.5725 13.4295V4.28621C14.5725 3.98309 14.4521 3.69238 14.2377 3.47805C14.0234 3.26371 13.7327 3.14329 13.4296 3.14329Z" fill="#AAAAAA"/>
</svg>
