<svg width="24" height="24" viewBox="0 0 24 24" fill="none" xmlns="http://www.w3.org/2000/svg">
<g clip-path="url(#clip0_2_555)">
<path d="M19.7864 3.69402C19.7904 4.11233 19.7944 4.53065 19.7984 4.94896L19.801 6.20456L19.7944 6.20589C19.4317 6.20523 19.069 6.20986 18.707 6.20059C18.5733 6.19728 18.529 6.24428 18.5429 6.37136C18.5502 6.43622 18.5442 6.50307 18.5442 6.56926C18.5436 7.67859 18.5422 8.78791 18.5416 9.89724C18.1822 9.8979 17.8228 9.90253 17.4635 9.89856C17.3437 9.89724 17.2861 9.92239 17.2914 10.0601C17.302 10.3539 17.2994 10.6478 17.2914 10.9417C17.2894 11.0251 17.3351 11.0833 17.3556 11.1542C17.3556 11.4838 17.3576 11.8141 17.3549 12.1437C17.353 12.3747 17.3245 12.4018 17.0882 12.4045C16.8136 12.4071 16.5383 12.4124 16.2636 12.4025C16.1266 12.3972 16.0968 12.4515 16.0995 12.5752C16.1068 12.8612 16.0949 13.1471 16.1048 13.4324C16.1094 13.5687 16.0578 13.6005 15.9334 13.5979C15.6369 13.5912 15.3397 13.5939 15.0426 13.5965C14.854 13.5979 14.852 13.6012 14.85 13.7997C14.8473 14.0638 14.8493 14.3273 14.85 14.5913C14.85 14.8819 14.8685 14.8475 14.578 14.8482C14.347 14.8488 14.116 14.8475 13.8851 14.8482C13.5628 14.8495 13.5972 14.8144 13.5965 15.1209C13.5958 15.385 13.5985 15.6484 13.5958 15.9125C13.5939 16.0952 13.5912 16.0978 13.4211 16.1005C13.2232 16.1038 13.0254 16.1011 12.8275 16.1011C12.3219 16.1011 11.8162 16.1031 11.3099 16.0998C11.2047 16.0991 11.1405 16.1196 11.1524 16.2428C11.1597 16.3189 11.1538 16.3963 11.1538 16.4738C11.1538 16.6935 11.1571 16.9139 11.1524 17.1337C11.1485 17.3064 11.1101 17.3441 10.9446 17.3541C10.8791 17.358 10.8129 17.3541 10.7467 17.3541C10.1087 17.3541 9.47142 17.3527 8.83343 17.3547C8.65342 17.3547 8.65077 17.3594 8.64879 17.5321C8.64614 17.7962 8.64614 18.0596 8.64879 18.3237C8.65143 18.5488 8.6521 18.5448 8.43833 18.5441C7.81159 18.5422 7.18485 18.5428 6.55812 18.5441C4.78777 18.5455 3.01808 18.5475 1.24773 18.5494L1.24243 18.5554C1.24508 18.2039 1.24574 17.8525 1.25037 17.501C1.25302 17.3024 1.25567 17.2991 1.44693 17.2978C1.72158 17.2952 1.99624 17.2971 2.27089 17.2971C3.86388 17.2971 5.4562 17.2971 7.04918 17.2971C7.11537 17.2971 7.18155 17.2925 7.24707 17.2978C7.36024 17.3077 7.40127 17.2614 7.39928 17.1476C7.39399 16.8729 7.39928 16.5982 7.39664 16.3235C7.39399 16.0826 7.39796 16.0958 7.63555 16.0965C8.29472 16.0978 8.95388 16.0978 9.61305 16.0965C9.88307 16.0958 9.893 16.0852 9.89564 15.8231C9.89829 15.5597 9.89432 15.2956 9.89697 15.0322C9.89895 14.8528 9.90226 14.8475 10.075 14.8475C10.7342 14.8455 11.3933 14.8475 12.0525 14.8462C12.3847 14.8462 12.3463 14.8819 12.3483 14.5463C12.3496 14.3153 12.3463 14.085 12.349 13.854C12.3523 13.6157 12.3682 13.6012 12.6164 13.5985C12.8798 13.5959 13.1438 13.5998 13.4072 13.5972C13.5886 13.5952 13.5919 13.5926 13.5939 13.4205C13.5965 13.1127 13.5978 12.8056 13.5939 12.4978C13.5925 12.3873 13.6269 12.3423 13.7441 12.3449C14.0624 12.3515 14.3814 12.3436 14.6997 12.3489C14.8142 12.3509 14.852 12.3072 14.8493 12.1953C14.844 11.9206 14.8506 11.6459 14.8467 11.3713C14.844 11.1409 14.8526 11.1462 15.0558 11.1482C15.3305 11.1509 15.6051 11.1416 15.8798 11.1515C16.0168 11.1568 16.0459 11.1005 16.0452 10.9788C16.0412 10.2977 16.0426 9.6166 16.0439 8.93551C16.0446 8.61251 16.0009 8.64759 16.3496 8.64561C16.6025 8.64428 16.8553 8.64759 17.1074 8.64494C17.2894 8.64296 17.2921 8.64031 17.2947 8.46888C17.298 8.28223 17.2954 8.09558 17.2954 7.90893C17.2954 6.55801 17.2954 5.20644 17.296 3.85552C17.296 3.80125 17.3066 3.74697 17.3126 3.69336C17.7236 3.69336 18.1339 3.69336 18.5449 3.69336C18.9585 3.69336 19.3722 3.69336 19.7858 3.69336L19.7864 3.69402Z" fill="#DCE300"/>
<path d="M18.5459 3.69335C18.1349 3.69335 17.7246 3.69335 17.3136 3.69335C17.3083 3.00499 17.3023 2.31728 17.2984 1.62892C17.2964 1.249 17.2984 1.249 16.9205 1.249C16.6908 1.249 16.4612 1.25164 16.2315 1.24833C16.0515 1.24569 16.0469 1.24304 16.0462 1.07095C16.0449 0.721472 16.0482 0.371333 16.0502 0.0218559C16.4314 -0.0171955 16.8132 0.00795624 17.1951 0.00530869C17.6425 0.00199925 18.0905 0.00928002 18.5379 0.0119276C18.5412 0.417665 18.5445 0.824064 18.5479 1.2298C18.5465 2.0512 18.5459 2.87195 18.5445 3.69335H18.5459Z" fill="#83785D"/>
<path d="M0.0185453 21.0374C-0.00858904 20.2087 -0.00263272 19.38 0.0152362 18.5514C0.424237 18.5527 0.833238 18.554 1.24224 18.5547L1.24753 18.5487C1.24886 19.382 1.25018 20.2147 1.25217 21.048L1.25415 21.0434C0.842503 21.0414 0.430855 21.0394 0.0192071 21.0374H0.0185453Z" fill="#171610"/>
<path d="M22.2361 7.39391C22.2394 7.80759 22.2421 8.22061 22.2454 8.63429C22.2454 10.2903 22.2454 11.9464 22.2454 13.6024L22.2474 13.6004C21.9092 13.5984 21.5717 13.5945 21.2335 13.5958C21.0561 13.5958 21.0515 13.6004 21.0515 13.7732C21.0488 14.5476 21.0488 15.3213 21.0482 16.0958L21.0455 16.0984C20.7073 16.0991 20.3698 16.101 20.0316 16.101C19.8079 16.101 19.7947 16.0713 19.796 16.3254C19.7993 17.0667 19.7993 17.8074 19.8006 18.5487L19.8026 18.5461C19.0607 18.5454 18.3195 18.5428 17.5776 18.5441C17.3076 18.5441 17.2924 18.5619 17.291 18.8472C17.2897 19.1636 17.291 19.48 17.291 19.7957C16.5498 19.7957 15.8086 19.7977 15.0674 19.7957C14.8384 19.7957 14.8463 19.799 14.8476 20.0035C14.8496 20.3524 14.8476 20.7012 14.8476 21.05V21.0493C13.7285 21.0493 12.6087 21.048 11.4896 21.0506C11.1011 21.0513 11.1567 20.995 11.1527 21.3717C11.1501 21.602 11.1547 21.8323 11.1514 22.0627C11.1494 22.2334 11.1461 22.2374 10.9648 22.2381C10.438 22.2401 9.91116 22.2381 9.38436 22.2387C7.48628 22.2401 5.58753 22.242 3.68945 22.244L3.69144 22.246C3.69276 21.8462 3.69409 21.4465 3.69541 21.0467V21.0447C4.26655 21.046 4.83836 21.0487 5.40951 21.0493C6.42076 21.05 7.43267 21.05 8.44392 21.0493C8.64048 21.0493 8.64379 21.0454 8.64511 20.8554C8.64776 20.5033 8.6471 20.1518 8.64776 19.7997C9.06338 19.7977 9.47966 19.795 9.89528 19.7931C10.2249 19.7944 10.5544 19.7977 10.884 19.7957C11.121 19.7944 11.1494 19.7659 11.1521 19.5362C11.156 19.2066 11.1547 18.877 11.156 18.5474C11.5511 18.5461 11.9469 18.5447 12.342 18.5434C12.7113 18.5434 13.0799 18.5394 13.4492 18.5447C13.5637 18.5467 13.5981 18.5037 13.5961 18.3938C13.5915 18.0463 13.5942 17.6988 13.5948 17.352C14.0104 17.3507 14.4254 17.3494 14.841 17.348C15.1263 17.35 15.4115 17.356 15.6961 17.3533C15.9959 17.3507 16.0349 17.3097 16.0362 17.0224C16.0369 16.7153 16.0362 16.4082 16.0362 16.101C16.3989 16.101 16.7616 16.0958 17.1243 16.103C17.2533 16.1057 17.2957 16.0673 17.293 15.9356C17.2851 15.5729 17.2904 15.2101 17.2904 14.8474C17.6405 14.8474 17.9906 14.8481 18.3407 14.8461C18.5379 14.8448 18.5405 14.8421 18.5425 14.6542C18.5458 14.304 18.5458 13.9539 18.5472 13.6037L18.5439 13.5945C18.9065 13.5951 19.2692 13.5912 19.6312 13.5998C19.7636 13.6031 19.798 13.5561 19.7973 13.429C19.7907 12.2535 19.7894 11.0786 19.7867 9.90313C19.7887 8.67069 19.7914 7.43759 19.7934 6.20516L19.8 6.20383C20.2189 6.20251 20.6378 6.20119 21.0568 6.19986L21.0541 6.19788C21.0528 6.53478 21.0488 6.87168 21.0501 7.20792C21.0508 7.38663 21.0548 7.3906 21.2249 7.39192C21.5617 7.39457 21.8986 7.39325 22.2355 7.39391H22.2361Z" fill="#DCE300"/>
<path d="M3.69004 22.2441C5.58813 22.2421 7.48687 22.2401 9.38495 22.2388C9.91175 22.2388 10.4386 22.2401 10.9654 22.2381C11.1467 22.2375 11.15 22.2335 11.152 22.0627C11.1553 21.8324 11.1507 21.6021 11.1533 21.3717C11.1573 20.9951 11.1017 21.0514 11.4902 21.0507C12.6093 21.0481 13.7291 21.0494 14.8482 21.0494C14.8482 21.379 14.8495 21.7086 14.8469 22.0383C14.8456 22.2441 14.8423 22.2474 14.6245 22.2481C13.9978 22.2501 13.3717 22.2481 12.745 22.2481C12.6788 22.2481 12.6126 22.2448 12.5471 22.2481C12.3843 22.2573 12.3565 22.2798 12.3532 22.4427C12.3479 22.7061 12.3512 22.9702 12.3519 23.2343C12.3532 23.5169 12.3658 23.4937 12.0785 23.4931C12.0567 23.4931 12.0349 23.4931 12.0124 23.4931C9.35252 23.4931 6.69269 23.4931 4.03286 23.4924C3.64703 23.4924 3.7013 23.5434 3.69666 23.1674C3.69335 22.8597 3.69137 22.5519 3.68872 22.2448L3.69004 22.2441Z" fill="#171610"/>
<path d="M22.231 13.641C22.231 11.5361 22.231 9.43112 22.231 7.32617C22.5863 7.33122 22.9409 7.33543 23.2963 7.34216C23.4883 7.34636 23.4923 7.34889 23.493 7.5996C23.4943 8.85651 23.4937 10.1126 23.4937 11.3695C23.4937 12.04 23.495 12.7097 23.493 13.3802C23.4923 13.6318 23.4883 13.636 23.2969 13.6385C22.9416 13.6427 22.5863 13.641 22.231 13.6419V13.641Z" fill="#171610"/>
<path d="M17.2911 19.7958C17.2911 19.4794 17.2898 19.1631 17.2911 18.8473C17.2924 18.5621 17.3077 18.5449 17.5777 18.5442C18.3189 18.5435 19.0608 18.5455 19.8027 18.5462C19.8001 18.9089 19.7914 19.271 19.7974 19.6337C19.8001 19.7687 19.7491 19.7998 19.6253 19.7991C18.8676 19.7945 18.1091 19.7958 17.3507 19.7952C17.3308 19.7965 17.311 19.7965 17.2911 19.7952V19.7958Z" fill="#171610"/>
<path d="M17.2912 19.7957C17.311 19.7963 17.3309 19.7963 17.3507 19.7957C17.3481 20.1246 17.3468 20.4536 17.3428 20.7819C17.3395 21.0288 17.3282 21.042 17.084 21.0433C16.3388 21.0473 15.5929 21.0486 14.8477 21.0506C14.8477 20.7018 14.8497 20.353 14.8477 20.0042C14.8464 19.7996 14.8391 19.7957 15.0675 19.7963C15.8087 19.7983 16.5499 19.7963 17.2912 19.7963V19.7957Z" fill="#171610"/>
<path d="M18.4423 3.78942C18.4437 2.52594 18.4443 1.26348 18.4457 0C18.8078 0.00509057 19.1699 0.0162897 19.532 0.0132354C19.6554 0.0132354 19.7061 0.0641411 19.7048 0.268782C19.6961 1.44267 19.6954 2.61553 19.6921 3.78942C19.2753 3.78942 18.8585 3.78942 18.4417 3.78942H18.4423Z" fill="#171610"/>
<path d="M19.8004 18.5487C19.799 17.8074 19.799 17.0667 19.7957 16.3254C19.7944 16.0713 19.8076 16.101 20.0313 16.101C20.3695 16.101 20.707 16.0997 21.0452 16.0984C21.0452 16.8232 21.0452 17.5479 21.0439 18.272C21.0439 18.5626 21.0823 18.5487 20.756 18.548C20.4377 18.548 20.1194 18.548 19.801 18.548L19.8004 18.5487Z" fill="#171610"/>
<path d="M21.0476 16.0951C21.0483 15.3207 21.0483 14.5469 21.0509 13.7725C21.0509 13.5997 21.0555 13.5958 21.2329 13.5951C21.5711 13.5938 21.9086 13.5978 22.2468 13.5997C22.2455 14.3239 22.2455 15.0486 22.2435 15.7727C22.2422 16.1421 22.2786 16.0924 21.9364 16.0944C21.6399 16.0964 21.3441 16.0944 21.0476 16.0944V16.0951Z" fill="#171610"/>
<path d="M3.69612 21.0466C3.6948 21.4464 3.69347 21.8462 3.69215 22.246C2.94761 22.2466 2.20307 22.246 1.45919 22.2486C1.27719 22.2486 1.24079 22.2698 1.24609 22.0282C1.2527 21.6999 1.25204 21.3716 1.25469 21.0433L1.2527 21.048C2.0674 21.048 2.88209 21.0466 3.69744 21.0466H3.69612Z" fill="#171610"/>
<path d="M21.0568 6.19982C20.6379 6.20114 20.2189 6.20246 19.8 6.20379L19.7974 4.94819C20.1581 4.94885 20.5187 4.9548 20.8794 4.94819C21.0085 4.9462 21.0475 4.98922 21.0462 5.11829C21.0422 5.47902 21.0522 5.83909 21.0561 6.19982H21.0568Z" fill="#171610"/>
<path d="M22.2364 7.39383C21.8995 7.39383 21.5627 7.39516 21.2258 7.39185C21.0557 7.39052 21.0517 7.38655 21.0511 7.20784C21.0498 6.87094 21.0531 6.53404 21.0551 6.1978C21.3926 6.19714 21.7301 6.19383 22.0676 6.19582C22.2384 6.19714 22.2423 6.20111 22.243 6.38115C22.2437 6.71871 22.239 7.05627 22.2364 7.39317V7.39383Z" fill="#171610"/>
<path d="M3.69644 21.0468C2.88175 21.0468 2.06706 21.0481 1.2517 21.0481C1.25038 20.2148 1.24906 19.3821 1.24707 18.5488C3.01742 18.5468 4.78711 18.5448 6.55746 18.5435C7.1842 18.5435 7.81094 18.5422 8.43767 18.5435C8.65144 18.5442 8.65078 18.5475 8.64813 18.3231C8.64548 18.059 8.64548 17.7956 8.64813 17.5315C8.65012 17.3587 8.65343 17.3541 8.83278 17.3541C9.47077 17.3521 10.1081 17.3534 10.7461 17.3534C10.8123 17.3534 10.8784 17.3567 10.944 17.3534C11.1094 17.3435 11.1478 17.3058 11.1518 17.133C11.1564 16.9133 11.1531 16.6935 11.1531 16.4731C11.1531 16.3963 11.1591 16.3189 11.1518 16.2421C11.1405 16.119 11.2041 16.0985 11.3093 16.0991C11.8149 16.1025 12.3205 16.1005 12.8268 16.1005C13.0247 16.1005 13.2226 16.1031 13.4205 16.0998C13.5906 16.0972 13.5932 16.0945 13.5952 15.9118C13.5978 15.6477 13.5952 15.3843 13.5958 15.1202C13.5972 14.8138 13.5628 14.8488 13.8844 14.8475C14.1154 14.8462 14.3463 14.8475 14.5773 14.8475C14.8679 14.8469 14.8493 14.8813 14.8493 14.5907C14.8493 14.3266 14.8473 14.0632 14.8493 13.7991C14.8513 13.6005 14.8533 13.5979 15.0419 13.5959C15.3391 13.5932 15.6356 13.5906 15.9327 13.5972C16.0571 13.5999 16.1088 13.5681 16.1041 13.4317C16.0942 13.1465 16.1061 12.8599 16.0988 12.5746C16.0955 12.4508 16.126 12.3972 16.263 12.4018C16.5376 12.4118 16.8129 12.4071 17.0876 12.4038C17.3238 12.4012 17.3516 12.374 17.3543 12.143C17.3576 11.8134 17.355 11.4831 17.355 11.1535C17.6931 11.1535 18.0307 11.1509 18.3689 11.1535C18.5383 11.1548 18.5429 11.1588 18.5429 11.3388C18.5449 12.0914 18.5442 12.8433 18.5442 13.5959L18.5475 13.6052C18.1782 13.6018 17.8096 13.6018 17.4403 13.5939C17.3305 13.5919 17.2874 13.6257 17.2894 13.7408C17.2947 14.1102 17.2914 14.4795 17.2908 14.8488C16.9281 14.8488 16.5654 14.8535 16.2027 14.8455C16.0724 14.8429 16.032 14.8839 16.0353 15.0143C16.0426 15.377 16.0373 15.7397 16.0366 16.1018C15.6964 16.1018 15.3563 16.1058 15.0168 16.0985C14.8917 16.0958 14.8434 16.1283 14.8454 16.2626C14.852 16.624 14.8434 16.9861 14.8414 17.3481C14.4258 17.3495 14.0108 17.3508 13.5952 17.3521C13.5806 17.3031 13.5469 17.2886 13.4972 17.2892C13.1895 17.2912 12.8818 17.2872 12.5747 17.2919C12.3827 17.2945 12.347 17.3303 12.3444 17.5222C12.3397 17.8624 12.343 18.2033 12.343 18.5442C11.9479 18.5455 11.5522 18.5468 11.1571 18.5481C10.7944 18.5468 10.4317 18.5495 10.0697 18.5415C9.94529 18.5389 9.89433 18.5693 9.89697 18.705C9.90492 19.0677 9.89764 19.4304 9.89697 19.7925C9.48135 19.7945 9.06507 19.7971 8.64946 19.7991C7.9572 19.7978 7.26494 19.7965 6.57268 19.7958C5.68255 19.7958 4.79241 19.7951 3.90227 19.7958C3.70438 19.7958 3.70174 19.7998 3.69975 19.9884C3.69644 20.3399 3.6971 20.692 3.69644 21.0435V21.0454V21.0468Z" fill="#F8FAC7"/>
<path d="M18.5435 13.5952C18.5435 12.8426 18.5442 12.0907 18.5422 11.3381C18.5422 11.1581 18.5376 11.1541 18.3681 11.1528C18.03 11.1502 17.6924 11.1528 17.3543 11.1528C17.3337 11.082 17.2881 11.0237 17.2901 10.9403C17.298 10.6465 17.3 10.3519 17.2901 10.0587C17.2854 9.92036 17.3423 9.89521 17.4621 9.8972C17.8215 9.90183 18.1809 9.8972 18.5402 9.89587C18.9558 9.89786 19.3708 9.90051 19.7864 9.90249C19.7891 11.078 19.7904 12.2529 19.797 13.4284C19.7977 13.5555 19.7633 13.6024 19.6309 13.5991C19.2682 13.5905 18.9062 13.5952 18.5435 13.5938V13.5952Z" fill="#F8FAC7"/>
<path d="M19.7873 9.90313C19.3717 9.90115 18.9568 9.8985 18.5412 9.89651C18.5418 8.78719 18.5431 7.67786 18.5438 6.56854C18.5438 6.50235 18.5498 6.43616 18.5425 6.37063C18.5286 6.24421 18.5729 6.19656 18.7066 6.19987C19.0686 6.20913 19.4313 6.20384 19.794 6.20516C19.792 7.4376 19.7893 8.6707 19.7873 9.90313Z" fill="#F8FAC7"/>
<path d="M3.6958 21.0448C3.69646 20.6933 3.6958 20.3412 3.69911 19.9897C3.7011 19.8011 3.70374 19.7971 3.90162 19.7971C4.79176 19.7958 5.6819 19.7958 6.57204 19.7971C7.2643 19.7971 7.95656 19.7991 8.64881 19.8004C8.64881 20.1526 8.64881 20.504 8.64617 20.8562C8.64484 21.0461 8.64153 21.0501 8.44497 21.0501C7.43372 21.0514 6.42181 21.0514 5.41056 21.0501C4.83875 21.0501 4.26695 21.0474 3.6958 21.0455V21.0448Z" fill="#DCE300"/>
<path d="M17.2905 14.8481C17.2905 14.4788 17.2944 14.1094 17.2891 13.7401C17.2871 13.6249 17.3302 13.5905 17.44 13.5932C17.8093 13.6004 18.1779 13.6011 18.5472 13.6044C18.5459 13.9545 18.5459 14.3047 18.5426 14.6548C18.5406 14.8428 18.538 14.8455 18.3408 14.8468C17.9907 14.8494 17.6406 14.8481 17.2905 14.8481Z" fill="#DCE300"/>
<path d="M16.0361 16.1011C16.0361 15.7384 16.0421 15.3757 16.0348 15.0136C16.0321 14.8832 16.0725 14.8422 16.2022 14.8448C16.5649 14.8528 16.9276 14.8482 17.2903 14.8488C17.2903 15.2115 17.285 15.5742 17.2929 15.937C17.2955 16.068 17.2532 16.1071 17.1241 16.1044C16.7615 16.0971 16.3988 16.1018 16.0361 16.1018V16.1011Z" fill="#DCE300"/>
<path d="M12.3431 18.5435C12.3431 18.2026 12.3405 17.8624 12.3445 17.5216C12.3471 17.3296 12.3829 17.2945 12.5748 17.2912C12.8825 17.2866 13.1903 17.2899 13.4974 17.2886C13.547 17.2886 13.5807 17.3031 13.5953 17.3515C13.5953 17.6989 13.592 18.0464 13.5966 18.3933C13.5979 18.5031 13.5642 18.5455 13.4497 18.5442C13.0804 18.5389 12.7118 18.5429 12.3425 18.5429L12.3431 18.5435Z" fill="#DCE300"/>
<path d="M9.89568 19.7925C9.897 19.4298 9.90362 19.0671 9.89568 18.705C9.89303 18.5687 9.94399 18.5389 10.0684 18.5415C10.4311 18.5495 10.7938 18.5468 11.1558 18.5482C11.1545 18.8778 11.1558 19.2074 11.1518 19.537C11.1492 19.766 11.12 19.7952 10.8838 19.7965C10.5542 19.7985 10.2246 19.7952 9.89502 19.7938L9.89568 19.7925Z" fill="#DCE300"/>
<path d="M14.8411 17.3481C14.8437 16.9861 14.8517 16.624 14.845 16.2626C14.8424 16.1276 14.8914 16.0952 15.0164 16.0985C15.3566 16.1058 15.6961 16.1018 16.0363 16.1018C16.0363 16.4089 16.0376 16.716 16.0363 17.0231C16.0356 17.3097 15.9959 17.3508 15.6961 17.3541C15.4109 17.3567 15.1256 17.3508 14.8411 17.3488V17.3481Z" fill="#DCE300"/>
</g>
<defs>
<clipPath id="clip0_2_555">
<rect width="23.4944" height="23.4944" fill="white"/>
</clipPath>
</defs>
</svg>
