<svg width="11" height="14" viewBox="0 0 11 14" fill="none" xmlns="http://www.w3.org/2000/svg">
<g clip-path="url(#clip0_1_2264)">
<path d="M9.39693 10.8698H7.76184C7.51091 10.8698 7.3073 10.6584 7.3073 10.3974C7.3073 10.1364 7.51072 9.925 7.76184 9.925H9.39693C9.54078 9.925 9.65766 9.80332 9.65766 9.65401V1.37205C9.65766 1.22255 9.54059 1.10107 9.39693 1.10107H3.56184C3.41799 1.10107 3.3011 1.22275 3.3011 1.37205V3.07143C3.3011 3.33223 3.09768 3.54384 2.84657 3.54384C2.59545 3.54384 2.39203 3.33243 2.39203 3.07143V1.37205C2.39203 0.701745 2.91689 0.15625 3.56184 0.15625H9.39693C10.0419 0.15625 10.5667 0.701745 10.5667 1.37205V9.65401C10.5667 10.3243 10.0419 10.8698 9.39693 10.8698Z" fill="black"/>
<path d="M7.0464 13.3127H1.21131C0.566362 13.3127 0.0415039 12.7672 0.0415039 12.0969V3.81492C0.0415039 3.14462 0.566362 2.59912 1.21131 2.59912H7.0464C7.69135 2.59912 8.21621 3.14462 8.21621 3.81492V12.0969C8.21621 12.7672 7.69135 13.3127 7.0464 13.3127ZM1.21131 3.54394C1.06747 3.54394 0.95058 3.66562 0.95058 3.81492V12.0969C0.95058 12.2464 1.06766 12.3679 1.21131 12.3679H7.0464C7.19025 12.3679 7.30714 12.2462 7.30714 12.0969V3.81492C7.30714 3.66542 7.19006 3.54394 7.0464 3.54394H1.21131Z" fill="black"/>
</g>
<defs>
<clipPath id="clip0_1_2264">
<rect width="10.5251" height="13.1563" fill="black" transform="translate(0.0413208 0.15625)"/>
</clipPath>
</defs>
</svg>
