<svg width="77" height="79" viewBox="0 0 77 79" fill="none" xmlns="http://www.w3.org/2000/svg">
<rect x="2.25684" y="20.3143" width="63.2001" height="33.8572" rx="16.9286" fill="#FA3465"/>
<path d="M26.5799 29.5584L26.0743 32.3934H20.9642L20.5669 34.6686H24.377L23.9255 37.3411H20.0974L19.2126 42.3429H15.6553L17.8944 29.5584H26.5799ZM30.6161 29.5584L29.3341 36.8535C29.2859 37.1906 29.2618 37.4193 29.2618 37.5397C29.2618 38.0453 29.3943 38.4365 29.6591 38.7134C29.9239 38.9782 30.3272 39.1107 30.8689 39.1107C31.519 39.1107 32.0426 38.912 32.4399 38.5148C32.8372 38.1175 33.102 37.5638 33.2344 36.8535L34.5165 29.5584H38.0557L36.7736 36.8535C36.5569 38.0573 36.1296 39.0806 35.4916 39.9232C34.8535 40.7659 34.0771 41.4039 33.1622 41.8373C32.2473 42.2586 31.2602 42.4693 30.2008 42.4693C28.8044 42.4693 27.6969 42.1082 26.8783 41.3859C26.0717 40.6515 25.6685 39.5982 25.6685 38.2259C25.6685 37.7684 25.7106 37.311 25.7949 36.8535L27.0769 29.5584H30.6161ZM40.8005 39.6524H44.7912L44.3217 42.3429H36.7738L39.0129 29.5584H42.5701L40.8005 39.6524ZM48.7852 39.6524H52.7758L52.3063 42.3429H44.7584L46.9975 29.5584H50.5548L48.7852 39.6524Z" fill="#1C1734"/>
<path d="M15.6936 8.23445C15.6245 8.33153 15.5269 8.40468 15.4144 8.44371L15.4104 8.44371L12.3548 9.45988C10.9871 9.91458 9.91581 10.9861 9.46121 12.3542L8.44135 15.4145C8.40233 15.5271 8.3292 15.6247 8.23215 15.6938C8.13509 15.7629 8.01892 15.8 7.89979 15.8C7.78067 15.8 7.6645 15.7629 7.56744 15.6938C7.47038 15.6247 7.39726 15.5271 7.35824 15.4145L6.33837 12.3581C6.11415 11.6839 5.73588 11.0713 5.23359 10.5689C4.7313 10.0665 4.11883 9.68811 3.4448 9.46383L0.385207 8.44371C0.272651 8.40468 0.175051 8.33153 0.105976 8.23445C0.0369009 8.13737 -0.000217098 8.02117 -0.000217093 7.90202C-0.000217087 7.78286 0.0369009 7.66666 0.105976 7.56958C0.175051 7.4725 0.272651 7.39936 0.385207 7.36033L3.4448 6.3402C4.11883 6.11592 4.7313 5.73756 5.23359 5.23514C5.73588 4.73273 6.11415 4.12011 6.33837 3.44591L7.35824 0.38555C7.39726 0.272966 7.47038 0.175342 7.56744 0.106249C7.6645 0.0371567 7.78067 2.63524e-05 7.89979 2.63576e-05C8.01892 2.63628e-05 8.13509 0.0371567 8.23215 0.106249C8.3292 0.175342 8.40233 0.272966 8.44135 0.38555L9.46122 3.44591C9.91581 4.81398 10.9871 5.8855 12.3548 6.3402L15.4144 7.36033C15.5269 7.39936 15.6245 7.4725 15.6936 7.56958C15.7627 7.66666 15.7998 7.78286 15.7998 7.90202C15.7998 8.02117 15.7627 8.13737 15.6936 8.23445Z" fill="#D9D9D9"/>
<path d="M76.6375 39.8343C76.5684 39.9314 76.4708 40.0045 76.3582 40.0436L76.3543 40.0436L73.2986 41.0597C71.9309 41.5144 70.8597 42.586 70.4051 43.954L69.3852 47.0144C69.3462 47.127 69.2731 47.2246 69.176 47.2937C69.0789 47.3628 68.9628 47.3999 68.8436 47.3999C68.7245 47.3999 68.6083 47.3628 68.5113 47.2937C68.4142 47.2246 68.3411 47.127 68.3021 47.0144L67.2822 43.958C67.058 43.2838 66.6797 42.6712 66.1774 42.1687C65.6751 41.6663 65.0627 41.288 64.3886 41.0637L61.3291 40.0436C61.2165 40.0045 61.1189 39.9314 61.0498 39.8343C60.9807 39.7372 60.9436 39.621 60.9436 39.5019C60.9436 39.3827 60.9807 39.2665 61.0498 39.1694C61.1189 39.0724 61.2165 38.9992 61.3291 38.9602L64.3886 37.9401C65.0627 37.7158 65.6751 37.3374 66.1774 36.835C66.6797 36.3326 67.058 35.72 67.2822 35.0458L68.3021 31.9854C68.3411 31.8728 68.4142 31.7752 68.5113 31.7061C68.6083 31.637 68.7245 31.5999 68.8436 31.5999C68.9628 31.5999 69.0789 31.637 69.176 31.7061C69.2731 31.7752 69.3462 31.8728 69.3852 31.9854L70.4051 35.0458C70.8597 36.4138 71.9309 37.4854 73.2986 37.9401L76.3582 38.9602C76.4708 38.9992 76.5684 39.0724 76.6375 39.1694C76.7065 39.2665 76.7437 39.3827 76.7437 39.5019C76.7437 39.621 76.7065 39.7372 76.6375 39.8343Z" fill="#D9D9D9"/>
<path d="M31.4479 68.192C31.3492 68.3307 31.2098 68.4352 31.049 68.4909L31.0434 68.4909L26.6782 69.9426C24.7243 70.5922 23.1939 72.1229 22.5445 74.0773L21.0875 78.4493C21.0318 78.6101 20.9273 78.7496 20.7887 78.8483C20.65 78.947 20.4841 79 20.3139 79C20.1437 79 19.9777 78.947 19.8391 78.8483C19.7004 78.7496 19.596 78.6101 19.5402 78.4493L18.0833 74.083C17.763 73.1198 17.2226 72.2446 16.505 71.5269C15.7875 70.8092 14.9125 70.2687 13.9496 69.9483L9.57876 68.4909C9.41797 68.4352 9.27854 68.3307 9.17986 68.192C9.08118 68.0533 9.02815 67.8873 9.02815 67.7171C9.02815 67.5469 9.08118 67.3809 9.17986 67.2422C9.27854 67.1035 9.41797 66.999 9.57876 66.9433L13.9496 65.4859C14.9125 65.1655 15.7875 64.625 16.505 63.9073C17.2226 63.1895 17.763 62.3144 18.0833 61.3512L19.5402 56.9793C19.596 56.8185 19.7004 56.679 19.8391 56.5803C19.9777 56.4816 20.1437 56.4285 20.3139 56.4285C20.4841 56.4285 20.65 56.4816 20.7887 56.5803C20.9273 56.679 21.0318 56.8185 21.0875 56.9793L22.5445 61.3512C23.1939 63.3056 24.7243 64.8364 26.6782 65.4859L31.049 66.9433C31.2098 66.999 31.3492 67.1035 31.4479 67.2422C31.5466 67.3809 31.5996 67.5469 31.5996 67.7171C31.5996 67.8873 31.5466 68.0533 31.4479 68.192Z" fill="#D9D9D9"/>
</svg>
