<svg width="19" height="18" viewBox="0 0 19 18" fill="none" xmlns="http://www.w3.org/2000/svg">
<path d="M12.2477 5.90404C12.335 6.0539 12.4812 6.16016 12.6507 6.19687L17.4307 7.23197C17.7465 7.30033 17.8711 7.68386 17.6558 7.92474L14.3971 11.5718C14.2816 11.7011 14.2257 11.873 14.2432 12.0456L14.7358 16.9115C14.7684 17.2329 14.4421 17.4699 14.1465 17.3397L9.671 15.3675C9.5123 15.2975 9.33151 15.2975 9.17282 15.3675L4.69728 17.3397C4.40167 17.4699 4.07543 17.2329 4.10797 16.9115L4.60064 12.0456C4.61811 11.873 4.56224 11.7011 4.44669 11.5718L1.18798 7.92474C0.972748 7.68385 1.09736 7.30033 1.41308 7.23197L1.28235 6.62825L1.41308 7.23197L6.19311 6.19687C6.3626 6.16016 6.50886 6.0539 6.59615 5.90404L9.0577 1.67783C9.22028 1.39869 9.62354 1.39869 9.78612 1.67783L12.2477 5.90404Z" fill="#FDC214" stroke="#D9D9D9" stroke-width="1.23542" stroke-linejoin="round"/>
</svg>
