<svg width="19" height="19" viewBox="0 0 19 19" fill="none" xmlns="http://www.w3.org/2000/svg">
<path fill-rule="evenodd" clip-rule="evenodd" d="M0.168213 12.1825V13.5435V17.5434C0.168213 18.0957 0.615927 18.5434 1.16821 18.5434H17.1682C17.7205 18.5434 18.1682 18.0957 18.1682 17.5434V1.54346C18.1682 0.991173 17.7205 0.543457 17.1682 0.543457H1.16821C0.615929 0.543457 0.168213 0.991173 0.168213 1.54346V12.1825ZM2.16821 13.0582L6.65603 8.91561L14.6306 16.5434H2.16821V13.5435V13.0582ZM8.03847 7.47033L16.1682 15.2466V2.54346H2.16821V10.3364L5.29947 7.44601C6.07564 6.72954 7.27515 6.74019 8.03847 7.47033ZM12.1682 8.54346C13.2728 8.54346 14.1682 7.64803 14.1682 6.54346C14.1682 5.43889 13.2728 4.54346 12.1682 4.54346C11.0636 4.54346 10.1682 5.43889 10.1682 6.54346C10.1682 7.64803 11.0636 8.54346 12.1682 8.54346Z" fill="white"/>
</svg>
