<svg width="19" height="19" viewBox="0 0 19 19" fill="none" xmlns="http://www.w3.org/2000/svg">
<path fill-rule="evenodd" clip-rule="evenodd" d="M3.26503 7.9198C3.26503 5.32868 5.36555 3.22816 7.95667 3.22816C10.5478 3.22816 12.6483 5.32868 12.6483 7.9198C12.6483 10.5109 10.5478 12.6114 7.95667 12.6114C5.36555 12.6114 3.26503 10.5109 3.26503 7.9198ZM7.95667 0.935059C4.0991 0.935059 0.971924 4.06223 0.971924 7.9198C0.971924 11.7774 4.0991 14.9045 7.95667 14.9045C9.35203 14.9045 10.6518 14.4954 11.7426 13.7905L15.6718 17.7197C16.2475 18.2954 17.1809 18.2954 17.7565 17.7197C18.3322 17.144 18.3322 16.2106 17.7565 15.6349L13.8274 11.7057C14.5322 10.615 14.9414 9.31516 14.9414 7.9198C14.9414 4.06223 11.8142 0.935059 7.95667 0.935059Z" fill="white"/>
</svg>
