<svg width="21" height="21" viewBox="0 0 21 21" fill="none" xmlns="http://www.w3.org/2000/svg">
<path d="M8.53673 16.7641C6.88191 16.7641 5.26425 16.2734 3.88832 15.3541C2.51238 14.4347 1.43997 13.1279 0.806698 11.5991C0.173425 10.0702 0.007732 8.38792 0.330572 6.7649C0.653411 5.14187 1.45028 3.65103 2.62042 2.48089C3.79056 1.31076 5.2814 0.513885 6.90442 0.191045C8.52745 -0.131794 10.2098 0.0338987 11.7386 0.667172C13.2675 1.30044 14.5742 2.37285 15.4936 3.74879C16.4129 5.12472 16.9037 6.74238 16.9037 8.3972C16.901 10.6154 16.0186 12.742 14.4501 14.3105C12.8815 15.879 10.7549 16.7614 8.53673 16.7641ZM8.53673 1.88959C7.24965 1.88959 5.99147 2.27126 4.9213 2.98632C3.85113 3.70139 3.01703 4.71774 2.52448 5.90685C2.03194 7.09596 1.90307 8.40442 2.15416 9.66678C2.40526 10.9291 3.02505 12.0887 3.93516 12.9988C4.84526 13.9089 6.00481 14.5287 7.26716 14.7798C8.52951 15.0309 9.83798 14.902 11.0271 14.4095C12.2162 13.9169 13.2325 13.0828 13.9476 12.0126C14.6627 10.9425 15.0443 9.68429 15.0443 8.3972C15.0424 6.67188 14.3561 5.01779 13.1361 3.7978C11.9161 2.57782 10.2621 1.89156 8.53673 1.88959Z" fill="currentColor"/>
<path d="M5.74652 8.39683H3.88721C3.88868 7.16448 4.37889 5.98302 5.25029 5.11162C6.1217 4.24021 7.30315 3.75001 8.5355 3.74854V5.60785C7.79582 5.60785 7.08643 5.90169 6.5634 6.42473C6.04036 6.94776 5.74652 7.65715 5.74652 8.39683Z" fill="currentColor"/>
<path d="M20.35 18.8961L16.3934 14.9395C15.9961 15.4167 15.5561 15.8567 15.0789 16.254L19.0355 20.2106C19.2108 20.38 19.4457 20.4737 19.6894 20.4715C19.9332 20.4694 20.1663 20.3717 20.3387 20.1993C20.5111 20.0269 20.6088 19.7938 20.611 19.55C20.6131 19.3062 20.5194 19.0714 20.35 18.8961Z" fill="currentColor"/>
</svg>
