<svg width="20" height="20" viewBox="0 0 20 20" fill="none" xmlns="http://www.w3.org/2000/svg">
<g clip-path="url(#clip0_1_706)">
<path d="M20 14.9072V19.5191H15.3628V18.1836H18.6567V14.9072H20Z" fill="black"/>
<path d="M3.8118 3.68677V8.96662H9.12065V3.68677H3.8118ZM7.77739 7.63069H5.15506V5.02269H7.77739V7.63069Z" fill="black"/>
<path d="M5.22546 0.480713V1.81664H1.9315V5.0926H0.588242V0.480713H5.22546Z" fill="black"/>
<path d="M20 0.480713V5.0926H18.6567V1.81664H15.3628V0.480713H20Z" fill="black"/>
<path d="M5.22546 18.1836V19.5191H0.588242V14.9072H1.9315V18.1836H5.22546Z" fill="black"/>
<path d="M11.1922 3.68677V8.96662H16.5011V3.68677H11.1922ZM15.1578 7.63069H12.5355V5.02269H15.1578V7.63069Z" fill="black"/>
<path d="M3.8118 10.9844V16.2642H9.12065V10.9844H3.8118ZM7.77739 14.9283H5.15506V12.3203H7.77739V14.9283Z" fill="black"/>
<path d="M15.1481 12.2745V10.9844H11.1993V12.3203H15.1649V14.9283H15.1392L15.1481 14.9459H16.5081V12.2745H15.1481ZM12.5421 13.6659H11.1989V16.2642H13.8606V14.9283H12.5421V13.6659Z" fill="black"/>
</g>
<defs>
<clipPath id="clip0_1_706">
<rect width="19.4118" height="19.0385" fill="white" transform="translate(0.588242 0.480713)"/>
</clipPath>
</defs>
</svg>
