<svg width="52" height="69" viewBox="0 0 52 69" fill="none" xmlns="http://www.w3.org/2000/svg">
<path d="M19.9784 60.2544C19.975 62.401 19.9746 64.5476 19.9647 66.6943C19.9635 66.9221 20.0448 66.9927 20.2639 66.9851C20.6288 66.9721 20.9948 66.9889 21.3601 66.9794C21.5544 66.9744 21.6216 67.0523 21.617 67.2416C21.6082 67.6183 21.6078 67.9954 21.617 68.3718C21.6219 68.5649 21.5464 68.6313 21.3563 68.6302C20.4315 68.6241 19.5063 68.6199 18.5814 68.6321C18.286 68.6359 18.3219 68.4527 18.3219 68.2702C18.3219 66.4202 18.323 64.5705 18.3215 62.7205C18.3207 61.8983 18.315 61.0766 18.3116 60.2544C18.315 57.5925 18.315 54.9303 18.3265 52.2684C18.3276 51.9867 18.1627 52.0271 17.9932 52.0271C16.0165 52.0271 14.0397 52.0214 12.0633 52.0336C11.7656 52.0355 11.6351 51.9794 11.6603 51.6474C11.692 51.2271 11.6691 50.8023 11.6694 50.3798L11.666 50.3832C11.7572 50.3824 11.8484 50.3817 11.9397 50.3817C14.4947 50.3817 17.0497 50.3779 19.6043 50.3874C19.8795 50.3886 19.9921 50.3271 19.9738 50.0313C19.9471 49.5996 19.9608 49.1652 19.957 48.732C19.957 47.6118 19.957 46.4919 19.957 45.3717C19.9608 44.3682 19.9711 43.3647 19.9631 42.3617C19.9612 42.1376 20.0242 42.0685 20.2486 42.0765C20.7044 42.093 21.1609 42.0811 21.617 42.0811C21.62 43.7266 21.6227 45.3724 21.6258 47.0179C21.6219 48.053 21.6239 49.0881 21.6105 50.1229C21.6078 50.3435 21.6979 50.3886 21.8933 50.3851C22.3708 50.3763 22.8487 50.3851 23.3266 50.3863L23.3254 50.3851C23.3273 50.9328 23.3296 51.4806 23.3315 52.0283C22.3048 52.0283 21.2777 52.0317 20.2509 52.0256C20.062 52.0245 19.9631 52.0516 19.9639 52.2806C19.9742 54.939 19.975 57.5971 19.9784 60.2556V60.2544Z" fill="#3A3B31"/>
<path d="M26.6322 60.255C26.6287 61.2821 26.6306 62.3092 26.618 63.3359C26.6154 63.5669 26.7039 63.6317 26.92 63.6241C27.2734 63.6115 27.6276 63.6275 27.981 63.6184C28.1742 63.6134 28.2791 63.66 28.2715 63.8821C28.2585 64.2585 28.2612 64.6356 28.2707 65.0119C28.2757 65.2054 28.199 65.2707 28.0097 65.2696C27.0852 65.2635 26.1608 65.26 25.2363 65.2711C24.9775 65.2741 24.9737 65.1325 24.9741 64.9451C24.9772 63.5298 24.976 62.1149 24.9753 60.6996C24.9753 60.5515 24.9688 60.403 24.9653 60.255C24.9688 58.0606 24.9726 55.8663 24.976 53.6724C27.7429 53.6731 30.5101 53.6743 33.2773 53.6754L33.2754 53.6735C33.2754 54.1189 33.2525 54.5663 33.2842 55.0094C33.3079 55.3419 33.1781 55.3972 32.8808 55.3953C30.9273 55.3835 28.9738 55.3987 27.0207 55.3804C26.678 55.3774 26.6108 55.4804 26.615 55.8007C26.6352 57.2854 26.6295 58.7702 26.6329 60.2553L26.6322 60.255Z" fill="#3A3B31"/>
<path d="M41.5732 45.3705C41.5743 45.8496 41.5644 46.329 41.5808 46.8072C41.5889 47.0362 41.5075 47.0954 41.2885 47.0927C40.3877 47.0824 39.4865 47.0961 38.5857 47.0832C38.3472 47.0797 38.2743 47.1473 38.2781 47.3889C38.2914 48.2897 38.2773 49.1908 38.2876 50.0916C38.2899 50.308 38.2361 50.3939 38.0044 50.3859C37.5262 50.3695 37.0468 50.3806 36.5677 50.3802L36.5697 50.3821C36.5697 49.416 36.5586 48.4496 36.575 47.4839C36.58 47.1855 36.517 47.0584 36.188 47.0809C35.7696 47.1095 35.3475 47.0828 34.9273 47.0801C34.9257 46.5893 34.9303 46.0984 34.9196 45.6076C34.9158 45.4316 34.97 45.3644 35.1524 45.3702C35.5173 45.3816 35.8838 45.3579 36.2479 45.3786C36.5006 45.3931 36.5796 45.3202 36.575 45.0587C36.5586 44.0659 36.5677 43.0728 36.567 42.0796C37.6884 42.0804 38.8102 42.0815 39.9316 42.0823L39.9281 42.0789C39.9285 42.5346 39.9178 42.9911 39.9346 43.4464C39.943 43.6762 39.8602 43.74 39.6415 43.7308C39.2773 43.7155 38.9117 43.7384 38.5476 43.7224C38.3319 43.7129 38.272 43.7915 38.2796 43.9972C38.2934 44.3614 38.296 44.727 38.2789 45.0911C38.2682 45.319 38.3498 45.3797 38.5697 45.3774C39.5728 45.3682 40.5758 45.3751 41.5789 45.3759L41.5728 45.3702L41.5732 45.3705Z" fill="#3A3B31"/>
<path d="M49.875 13.8203C50.3323 13.8195 50.7895 13.8264 51.2464 13.8146C51.4437 13.8096 51.5281 13.8546 51.5277 14.0764C51.5216 17.7914 51.5216 21.506 51.5277 25.2209C51.5277 25.4427 51.4437 25.4881 51.2464 25.4828C50.7895 25.4709 50.3323 25.4778 49.875 25.477L49.8792 25.4816V13.8153L49.875 13.8199V13.8203Z" fill="#3A3B31"/>
<path d="M43.2208 38.7175C43.2212 40.8283 43.2178 42.9394 43.2277 45.0501C43.2288 45.2997 43.1716 45.3925 42.9074 45.3791C42.4635 45.3566 42.0177 45.3711 41.5727 45.3704L41.5788 45.3761C41.5776 44.3734 41.5712 43.3707 41.5803 42.368C41.5822 42.1493 41.5242 42.068 41.2952 42.0756C40.8398 42.0913 40.3837 42.0794 39.928 42.0787L39.9314 42.0821C39.9307 41.66 39.9532 41.2367 39.9223 40.8168C39.8978 40.484 40.0314 40.4092 40.3299 40.429C40.6593 40.4512 40.9914 40.426 41.3215 40.4367C41.5143 40.4428 41.5841 40.3718 41.5784 40.1798C41.5681 39.8267 41.5925 39.4718 41.5704 39.1195C41.5517 38.821 41.6254 38.6874 41.9582 38.7118C42.378 38.7423 42.8017 38.7202 43.2235 38.721L43.22 38.7175H43.2208Z" fill="#3A3B31"/>
<path d="M1.72231 43.7254C1.25398 43.7258 0.784886 43.7159 0.316937 43.7316C0.0886876 43.7392 -0.00406258 43.6865 0.000135982 43.4338C0.0146401 42.5311 0.0150218 41.6281 0.000135982 40.7258C-0.00406258 40.4712 0.0932678 40.4288 0.318464 40.43C1.88415 40.4387 3.44945 40.4353 5.01513 40.4361L5.0117 40.4326C5.01208 40.8658 4.9949 41.2998 5.01971 41.7315C5.03689 42.0281 4.92314 42.0918 4.64909 42.0869C3.80594 42.0708 2.96241 42.0926 2.11927 42.075C1.81964 42.0685 1.69025 42.135 1.71353 42.4647C1.74292 42.8842 1.71964 43.3075 1.71888 43.7293L1.72231 43.7258V43.7254Z" fill="#3A3B31"/>
<path d="M48.228 3.86879C48.228 5.53944 48.228 7.21008 48.228 8.88073L48.2322 8.87653C47.6604 8.87424 47.089 8.87195 46.5173 8.86928C46.5127 8.32347 46.5081 7.77765 46.5039 7.23184C46.5043 6.68488 46.5051 6.13792 46.5054 5.59097C46.5115 5.0192 46.5176 4.44781 46.5234 3.87604C47.0929 3.8749 47.6623 3.87375 48.2322 3.87261L48.2276 3.86841L48.228 3.86879Z" fill="#3A3B31"/>
<path d="M5.01461 40.4356C5.01423 39.968 5.02912 39.4997 5.00698 39.0333C4.99438 38.7691 5.08713 38.7119 5.33599 38.7134C6.89824 38.7249 8.46049 38.7203 10.0227 38.721L10.0185 38.7165C10.0193 39.205 10.0128 39.694 10.0239 40.1825C10.0281 40.3722 9.97159 40.4413 9.77502 40.4375C9.30936 40.4283 8.8437 40.4405 8.37804 40.4444C7.25588 40.4402 6.13372 40.436 5.01118 40.4318L5.01461 40.4352V40.4356Z" fill="#3A3B31"/>
<path d="M10.0234 38.7214C10.0227 38.2767 10.0379 37.8309 10.0154 37.3874C10.0021 37.1237 10.0944 37.0656 10.344 37.0672C11.9063 37.0786 13.4685 37.074 15.0312 37.0748L15.027 37.0706C15.0258 37.6176 15.0247 38.1641 15.0239 38.7111C13.3556 38.713 11.6876 38.7149 10.0192 38.7168L10.0234 38.7214Z" fill="#3A3B31"/>
<path d="M49.8753 25.4773C49.876 27.017 49.8715 28.5563 49.8829 30.0957C49.8848 30.3453 49.8268 30.4377 49.5631 30.4243C49.1195 30.4018 48.6737 30.4171 48.2291 30.4163L48.2333 30.4209C48.2325 28.8808 48.2375 27.341 48.2256 25.8009C48.2237 25.5505 48.2821 25.4601 48.5455 25.4734C48.9894 25.496 49.4348 25.4807 49.8799 25.4815L49.8757 25.4769L49.8753 25.4773Z" fill="#3A3B31"/>
<path d="M15.0309 37.0748C15.0301 36.6187 15.0408 36.1618 15.024 35.7065C15.0156 35.476 15.1 35.421 15.3175 35.4221C16.8687 35.4309 18.4195 35.4282 19.9707 35.4294L19.965 35.4237C19.965 35.9702 19.9653 36.5172 19.9657 37.0638C18.3195 37.0661 16.6729 37.0684 15.0267 37.071L15.0309 37.0752V37.0748Z" fill="#3A3B31"/>
<path d="M48.2284 8.88085C48.6731 8.88008 49.1189 8.89535 49.5624 8.87283C49.8262 8.85947 49.8842 8.95222 49.8823 9.20146C49.8708 10.7408 49.8754 12.2805 49.8746 13.8199L49.8788 13.8153C49.3311 13.8153 48.7838 13.8153 48.236 13.8153C48.2349 12.1691 48.2334 10.5225 48.2322 8.87627L48.228 8.88046L48.2284 8.88085Z" fill="#3A3B31"/>
<path d="M44.8713 2.22673C44.8705 1.74695 44.877 1.26679 44.8656 0.787009C44.861 0.59044 44.9041 0.50227 45.127 0.504942C46.0751 0.516011 47.024 0.516011 47.9721 0.504942C48.1946 0.50227 48.2381 0.59044 48.2336 0.787009C48.2221 1.26679 48.2286 1.74657 48.2278 2.22673L48.2324 2.22254H44.8667L44.8713 2.22673Z" fill="#3A3B31"/>
<path d="M48.2285 30.4164C48.2293 31.442 48.2243 32.4676 48.235 33.4932C48.2373 33.7126 48.1774 33.7924 47.9491 33.7848C47.4709 33.7684 46.9922 33.7787 46.5136 33.7779L46.5178 33.7825C46.517 32.7565 46.522 31.7305 46.5113 30.7045C46.509 30.4843 46.5689 30.4064 46.7968 30.4141C47.2751 30.4305 47.7541 30.4202 48.2331 30.421L48.2289 30.4164H48.2285Z" fill="#3A3B31"/>
<path d="M8.37594 48.7333C7.35073 48.7337 6.32513 48.7288 5.29992 48.7394C5.08045 48.7417 5.00067 48.6822 5.00831 48.4539C5.02434 47.9761 5.01403 47.4971 5.01442 47.0188L5.01098 47.0222C6.03467 47.0219 7.05835 47.026 8.08204 47.0169C8.2996 47.015 8.38548 47.0757 8.37823 47.3043C8.36334 47.7814 8.37289 48.2597 8.3725 48.7372L8.37594 48.7337V48.7333Z" fill="#3A3B31"/>
<path d="M24.9784 32.1365C24.9772 31.6579 24.9871 31.1789 24.9707 30.701C24.9631 30.4739 25.0413 30.4121 25.2616 30.4144C26.2643 30.4251 27.2673 30.4201 28.27 30.4209L28.2658 30.4167C28.2666 30.9067 28.259 31.3972 28.2716 31.8869C28.2765 32.0804 28.2177 32.1419 28.0223 32.1377C27.5555 32.1281 27.0883 32.1411 26.6211 32.1449C26.0715 32.1404 25.5219 32.1354 24.9719 32.1308L24.9776 32.1365H24.9784Z" fill="#3A3B31"/>
<path d="M21.6163 33.7822C21.6156 33.3264 21.6263 32.8699 21.6095 32.415C21.6011 32.1863 21.6824 32.1272 21.9015 32.1295C22.9271 32.1401 23.9527 32.1356 24.9782 32.1367L24.9725 32.131C24.9725 32.6776 24.9729 33.2245 24.9733 33.7711C23.853 33.7734 22.7324 33.7757 21.6121 33.7783L21.6163 33.7825V33.7822Z" fill="#3A3B31"/>
<path d="M33.2788 25.4826C33.2777 24.457 33.2822 23.4315 33.2715 22.4059C33.2693 22.1868 33.3284 22.1055 33.557 22.1139C34.0124 22.1307 34.4685 22.12 34.9243 22.1207L34.9201 22.1165C34.9246 22.6887 34.9288 23.2612 34.9334 23.8334C34.9281 24.3807 34.9223 24.9277 34.917 25.475C34.3689 25.4758 33.8208 25.4765 33.2731 25.4773L33.2788 25.483V25.4826Z" fill="#3A3B31"/>
<path d="M43.2247 8.88087C43.2247 7.78199 43.2243 6.68311 43.2239 5.58423L43.2205 5.58766C43.769 5.58728 44.3175 5.5869 44.8663 5.58614C44.8709 6.13462 44.8755 6.68349 44.8801 7.23197C44.8755 7.77931 44.8709 8.32704 44.8663 8.87438L44.8637 8.87361C44.3156 8.87438 43.7678 8.87552 43.2197 8.87629L43.2243 8.88048L43.2247 8.88087Z" fill="#3A3B31"/>
<path d="M39.9323 13.8198C39.9316 12.8171 39.9365 11.8144 39.9258 10.8117C39.9236 10.5922 39.9835 10.5121 40.2117 10.5201C40.6671 10.5365 41.1232 10.5262 41.5789 10.5269L41.5747 10.5224C41.5755 11.6205 41.5763 12.719 41.5766 13.8171C41.0274 13.8167 40.4778 13.8159 39.9285 13.8156L39.9327 13.8198H39.9323Z" fill="#3A3B31"/>
<path d="M44.867 35.4246C44.8678 36.4273 44.8628 37.4296 44.8735 38.4323C44.8758 38.6513 44.8166 38.7323 44.588 38.7243C44.133 38.7078 43.6769 38.7185 43.2212 38.7181L43.2246 38.7216C43.2269 37.6254 43.2292 36.5292 43.2311 35.4326C43.7777 35.4314 44.3247 35.4303 44.8712 35.4291L44.8666 35.4249L44.867 35.4246Z" fill="#3A3B31"/>
<path d="M34.924 22.1203C34.9233 21.1177 34.9282 20.115 34.9175 19.1123C34.9153 18.8928 34.9752 18.8123 35.2034 18.8207C35.6588 18.8371 36.1149 18.8268 36.5706 18.8275L36.5664 18.8233C36.5672 19.8276 36.5615 20.8322 36.5733 21.836C36.576 22.0578 36.5168 22.1318 36.2893 22.123C35.8336 22.1055 35.3767 22.1165 34.9202 22.1162L34.9244 22.1203H34.924Z" fill="#3A3B31"/>
<path d="M36.571 18.8274C36.5702 17.8247 36.5752 16.822 36.5645 15.8193C36.5622 15.5998 36.6222 15.5193 36.8504 15.5277C37.3058 15.5441 37.7619 15.5338 38.2176 15.5346L38.2134 15.5304C38.2142 16.5346 38.2084 17.5392 38.2203 18.543C38.2229 18.7648 38.1638 18.8388 37.9363 18.8301C37.4806 18.8125 37.0237 18.8236 36.5672 18.8232L36.5714 18.8274H36.571Z" fill="#3A3B31"/>
<path d="M11.6687 50.3793C10.6663 50.3796 9.66365 50.3747 8.66134 50.385C8.44225 50.3873 8.36133 50.3277 8.36973 50.0995C8.38614 49.6445 8.37545 49.1884 8.37583 48.7327L8.3724 48.7361C9.37318 48.7357 10.374 48.7399 11.3748 48.7308C11.5923 48.7288 11.6786 48.7892 11.6709 49.0182C11.6557 49.4728 11.6656 49.9277 11.6652 50.3827L11.6687 50.3793Z" fill="#3A3B31"/>
<path d="M38.2175 15.5353C38.2167 15.046 38.2236 14.5567 38.2121 14.0677C38.2076 13.8746 38.2721 13.8101 38.4652 13.8147C38.9541 13.8261 39.4435 13.8196 39.9328 13.82L39.9286 13.8158C39.9286 14.3872 39.9278 14.9586 39.9274 15.5296C39.3561 15.5296 38.7847 15.5304 38.2137 15.5307L38.2179 15.5349L38.2175 15.5353Z" fill="#3A3B31"/>
<path d="M43.2241 5.58439C42.7672 5.58477 42.3104 5.5779 41.8535 5.58935C41.6573 5.59431 41.5626 5.55156 41.5714 5.32789C41.5874 4.92865 41.5874 4.52826 41.5714 4.12901C41.5622 3.90572 41.6569 3.86259 41.8531 3.86756C42.3096 3.87901 42.7668 3.87214 43.2237 3.87252L43.2203 3.86908V5.58744L43.2237 5.58401L43.2241 5.58439Z" fill="#3A3B31"/>
<path d="M29.9174 28.775C29.9166 28.3086 29.9227 27.8418 29.9109 27.3757C29.9059 27.183 29.9705 27.1177 30.1636 27.1223C30.6525 27.1337 31.1419 27.1273 31.6312 27.128L31.627 27.1238C31.6247 27.6727 31.6224 28.2212 31.6197 28.77C31.0502 28.77 30.4808 28.7697 29.9109 28.7693L29.9166 28.775H29.9174Z" fill="#3A3B31"/>
<path d="M43.224 3.87274C43.2236 3.40632 43.2305 2.93989 43.219 2.47385C43.214 2.28034 43.2797 2.2166 43.4725 2.22118C43.9385 2.23263 44.4049 2.22614 44.8713 2.22652L44.8668 2.22232C44.8656 2.77157 44.8649 3.32082 44.8637 3.86968C44.316 3.86968 43.7683 3.8693 43.2205 3.86892L43.224 3.87236V3.87274Z" fill="#3A3B31"/>
<path d="M31.6316 27.128C31.6308 26.6616 31.6377 26.1948 31.6262 25.7288C31.6213 25.5353 31.6873 25.4711 31.8797 25.4761C32.3457 25.4879 32.8125 25.4814 33.2789 25.4822L33.2732 25.4765C33.2732 26.0231 33.2732 26.57 33.2736 27.1166C32.7247 27.1189 32.1762 27.1212 31.6274 27.1235L31.6316 27.1277V27.128Z" fill="#3A3B31"/>
<path d="M48.228 2.22691C48.6849 2.22614 49.1422 2.23301 49.599 2.22156C49.7952 2.2166 49.891 2.25897 49.8811 2.48264C49.8647 2.85898 49.8647 3.23685 49.8811 3.6132C49.891 3.83687 49.7952 3.87923 49.599 3.87427C49.1422 3.86282 48.6853 3.86931 48.228 3.86893L48.2326 3.87313V2.22233L48.228 2.22653V2.22691Z" fill="#3A3B31"/>
<path d="M3.36859 45.3717C2.90254 45.372 2.43612 45.3652 1.97008 45.3766C1.77695 45.3812 1.71244 45.3167 1.71702 45.1236C1.72847 44.6575 1.7216 44.1915 1.72198 43.7251L1.71855 43.7285C2.18344 43.7281 2.64872 43.7338 3.11362 43.7243C3.30484 43.7201 3.37355 43.7888 3.36935 43.98C3.35942 44.4449 3.36553 44.9102 3.36515 45.3751L3.36859 45.3717Z" fill="#3A3B31"/>
<path d="M41.5784 10.5274C41.5776 10.061 41.5845 9.59457 41.573 9.12853C41.5681 8.93539 41.6329 8.87089 41.8261 8.87547C42.2921 8.8873 42.7585 8.88043 43.225 8.88081L43.2204 8.87661C43.2196 9.4251 43.2189 9.97397 43.2181 10.5225L43.2196 10.5209C42.6711 10.5217 42.1223 10.5225 41.5738 10.5228L41.578 10.5274H41.5784Z" fill="#3A3B31"/>
<path d="M5.01507 47.0182C4.54903 47.0185 4.08261 47.0117 3.61657 47.0231C3.42343 47.0277 3.35893 46.9632 3.36351 46.7701C3.37496 46.304 3.36809 45.8376 3.36847 45.3715L3.36503 45.375C3.82993 45.3746 4.29521 45.3803 4.7601 45.3708C4.95133 45.3666 5.02003 45.4353 5.01583 45.6265C5.00591 46.0914 5.01202 46.5563 5.01163 47.0216L5.01507 47.0182Z" fill="#3A3B31"/>
<path d="M46.5132 33.7778C46.514 34.2442 46.5071 34.7106 46.5186 35.1767C46.5236 35.3698 46.4587 35.4343 46.2655 35.4297C45.7995 35.4179 45.3331 35.4248 44.8666 35.4244L44.8712 35.4286C44.8705 34.9618 44.8777 34.495 44.8655 34.0289C44.8605 33.8354 44.9243 33.7717 45.1178 33.7766C45.5842 33.7888 46.051 33.7816 46.5174 33.7824L46.5132 33.7778Z" fill="#3A3B31"/>
<path d="M19.9707 35.4293C19.97 34.9629 19.9765 34.4961 19.9646 34.0301C19.9597 33.8373 20.0234 33.7717 20.2173 33.7766C20.6833 33.7885 21.1501 33.7816 21.6166 33.782L21.6124 33.7778C21.6101 34.3266 21.6078 34.8751 21.6051 35.424C21.0585 35.424 20.5116 35.4236 19.965 35.4232L19.9707 35.429V35.4293Z" fill="#3A3B31"/>
<path d="M36.5676 50.3802C36.5676 50.8462 36.5608 51.3123 36.5718 51.7779C36.5764 51.9707 36.5119 52.0356 36.3192 52.0306C35.8535 52.0192 35.3875 52.0264 34.9214 52.0264L34.9233 52.0283C34.9233 51.563 34.9298 51.0974 34.9191 50.6321C34.9149 50.4401 34.9813 50.3733 35.1733 50.3779C35.6386 50.3882 36.1039 50.3817 36.5695 50.3821L36.5676 50.3802Z" fill="#3A3B31"/>
<path d="M28.2703 30.4208C28.2695 29.9543 28.2764 29.4875 28.2649 29.0215C28.2599 28.828 28.326 28.7639 28.5183 28.7688C28.9844 28.7807 29.4512 28.7742 29.9176 28.7749L29.9119 28.7692C29.9119 29.3158 29.9123 29.8627 29.9127 30.4093C29.3638 30.4116 28.8153 30.4139 28.2664 30.4166L28.2706 30.4208H28.2703Z" fill="#3A3B31"/>
<path d="M34.9212 52.0262C34.9212 52.4922 34.9143 52.9583 34.9254 53.4239C34.9299 53.6167 34.8654 53.6816 34.6727 53.6766C34.207 53.6652 33.741 53.6724 33.2749 53.6724L33.2768 53.6743C33.2768 53.209 33.2833 52.7434 33.2726 52.2781C33.2684 52.0861 33.3349 52.0193 33.5269 52.0239C33.9921 52.0342 34.4574 52.0277 34.9231 52.0281L34.9212 52.0262Z" fill="#3A3B31"/>
<path d="M5.01165 47.0215C5.01203 46.5566 5.00631 46.0913 5.01585 45.6264C5.02005 45.4352 4.95134 45.3665 4.76012 45.3707C4.29522 45.3806 3.83033 45.3745 3.36505 45.3749C3.36543 44.91 3.35971 44.4447 3.36925 43.9798C3.37345 43.7886 3.30474 43.7199 3.11352 43.7241C2.64862 43.734 2.18373 43.7279 1.71845 43.7283C1.71921 43.3065 1.74249 42.8832 1.7131 42.4637C1.68982 42.1336 1.81921 42.0676 2.11884 42.074C2.96161 42.0916 3.80552 42.0698 4.64867 42.0859C4.92272 42.0912 5.03646 42.0275 5.01928 41.7305C4.99447 41.2988 5.01203 40.8649 5.01127 40.4316C6.13343 40.4358 7.25559 40.44 8.37814 40.4442C8.37661 40.89 8.36859 41.3359 8.37699 41.7813C8.38119 42.0038 8.29149 42.0878 8.0724 42.0821C7.71858 42.0725 7.36399 42.0859 7.00979 42.0786C6.80329 42.0744 6.72237 42.1622 6.72695 42.3653C6.73459 42.6966 6.74299 43.029 6.7239 43.3592C6.70711 43.6458 6.81856 43.7344 7.09948 43.7313C8.0705 43.7206 9.04189 43.7313 10.0133 43.7336C10.016 44.7157 10.0244 45.6978 10.0171 46.6799C10.0152 46.9272 10.0934 47.0261 10.3507 47.023C11.2301 47.0123 12.1095 47.0119 12.9885 47.023C13.2515 47.0264 13.3237 46.9173 13.3168 46.6745C13.3046 46.2409 13.3137 45.8066 13.3141 45.3726C13.8836 45.3749 14.4531 45.3772 15.0229 45.3795C15.0248 46.3741 15.0348 47.3684 15.0237 48.3627C15.0206 48.644 15.1103 48.741 15.3962 48.7387C16.9165 48.7269 18.4368 48.7314 19.9574 48.7303C19.9608 49.1635 19.9475 49.5979 19.9742 50.0296C19.9925 50.3254 19.8795 50.3868 19.6047 50.3857C17.0497 50.3761 14.4951 50.3799 11.94 50.3799C11.8488 50.3799 11.7576 50.3811 11.6664 50.3815C11.6668 49.9265 11.6572 49.4711 11.6721 49.0169C11.6797 48.7879 11.5935 48.7276 11.3759 48.7295C10.3751 48.7391 9.37434 48.7345 8.37356 48.7349C8.37394 48.257 8.3644 47.7791 8.37928 47.302C8.38653 47.0734 8.30065 47.0127 8.08309 47.0146C7.0594 47.0241 6.03572 47.0196 5.01203 47.02L5.01165 47.0215Z" fill="#AE9D1A"/>
<path d="M21.625 47.0172C21.622 45.3718 21.6193 43.7259 21.6162 42.0805L21.6094 42.0831C22.0995 42.0824 22.5895 42.074 23.0793 42.0847C23.272 42.0889 23.3377 42.0278 23.3323 41.8331C23.3197 41.3663 23.3266 40.8988 23.3254 40.4316C23.7922 40.4327 24.2594 40.4259 24.7262 40.4385C24.9205 40.4438 24.9823 40.3785 24.9778 40.1858C24.9659 39.6965 24.9728 39.2064 24.9724 38.7167C25.9755 38.7178 26.979 38.7243 27.982 38.7151C28.2011 38.7132 28.2805 38.7705 28.2729 38.9995C28.2572 39.4777 28.2691 39.9571 28.2698 40.4358C27.8129 40.4358 27.3553 40.4476 26.8992 40.4297C26.6667 40.4205 26.6083 40.5041 26.6171 40.722C26.6328 41.0984 26.6129 41.4763 26.6248 41.853C26.6305 42.0366 26.5641 42.0889 26.3877 42.0843C25.9881 42.074 25.5881 42.0873 25.1881 42.0786C25.0243 42.0751 24.9686 42.1324 24.972 42.2954C24.9804 42.695 24.982 43.0954 24.9713 43.495C24.9667 43.6721 25.0213 43.7366 25.2037 43.7309C25.5919 43.7194 25.9808 43.7362 26.369 43.724C26.5587 43.7183 26.6259 43.7725 26.6248 43.9717C26.6175 45.4798 26.6171 46.9878 26.6248 48.4963C26.6259 48.7024 26.5469 48.7444 26.3637 48.7386C25.9984 48.7276 25.6316 48.7512 25.2671 48.7299C25.0163 48.7154 24.9594 48.8096 24.969 49.0413C24.9873 49.4864 24.9774 49.9322 24.9793 50.3776L23.3232 50.3845L23.3243 50.3856C23.3254 49.3963 23.3155 48.4066 23.3346 47.4172C23.3407 47.0955 23.2262 47 22.9197 47.0146C22.4884 47.0344 22.0556 47.018 21.6235 47.0172H21.625Z" fill="#222222"/>
<path d="M15.0228 45.3803C14.4533 45.378 13.8838 45.3757 13.314 45.3734C13.314 44.823 13.3147 44.2726 13.3151 43.7223C13.7937 43.7234 14.2724 43.7188 14.751 43.7287C14.9575 43.7329 15.0342 43.6535 15.0308 43.4478C15.0232 42.9921 15.0312 42.5363 15.0331 42.0802L15.0289 42.0844C15.5755 42.0806 16.1224 42.0768 16.669 42.0726C17.1244 42.0749 17.5801 42.0726 18.0354 42.081C18.2366 42.0848 18.3274 42.0066 18.3225 41.8001C18.3148 41.4814 18.337 41.1615 18.3167 40.8439C18.2977 40.5405 18.3896 40.4203 18.716 40.4268C19.6836 40.4466 20.6519 40.4348 21.6199 40.4355C21.6164 40.9844 21.613 41.5333 21.6096 42.0821L21.6164 42.0795C21.1603 42.0795 20.7034 42.0913 20.2481 42.0749C20.0237 42.0669 19.9607 42.136 19.9626 42.36C19.9706 43.3635 19.9603 44.3669 19.9565 45.37C18.3118 45.373 16.6671 45.3765 15.0228 45.3795V45.3803Z" fill="#F6DB00"/>
<path d="M15.0232 45.3804C16.6679 45.3773 18.3126 45.3739 19.9569 45.3708C19.9569 46.4911 19.9569 47.611 19.9569 48.7312C18.4367 48.7324 16.916 48.7278 15.3958 48.7396C15.1102 48.7419 15.0202 48.645 15.0232 48.3637C15.0343 47.3694 15.0244 46.3747 15.0225 45.3804H15.0232Z" fill="#D5C01A"/>
<path d="M21.6252 47.0169C22.0573 47.0177 22.4901 47.0341 22.9214 47.0143C23.2279 47.0002 23.3424 47.0952 23.3363 47.417C23.3172 48.4059 23.3271 49.3956 23.326 50.3853C22.8481 50.3838 22.3702 50.3754 21.8928 50.3842C21.6973 50.3876 21.6072 50.343 21.6099 50.122C21.6233 49.0872 21.6214 48.0521 21.6252 47.0169Z" fill="#222222"/>
<path d="M23.3247 50.3838C23.8766 50.3815 24.4289 50.3792 24.9809 50.3769L24.9778 50.3743C24.9816 50.9205 24.9854 51.4667 24.9896 52.0129L24.9683 52.0342C24.4209 52.0312 23.8736 52.0281 23.3262 52.0251L23.3312 52.0266C23.3293 51.4789 23.327 50.9311 23.3251 50.3834L23.3247 50.3838Z" fill="#222222"/>
<path d="M34.923 52.0282C34.4577 52.0282 33.992 52.0347 33.5267 52.024C33.3348 52.0198 33.268 52.0863 33.2725 52.2782C33.2828 52.7435 33.2764 53.2088 33.2767 53.6745C30.5095 53.6733 27.7426 53.6725 24.9754 53.6714L24.9769 53.6764C24.9739 53.129 24.9708 52.5817 24.9678 52.0343L24.9891 52.013C25.535 52.016 26.0812 52.0191 26.6274 52.0221C27.0728 52.0237 27.5186 52.0133 27.9633 52.032C28.1961 52.042 28.2873 51.9836 28.2732 51.734C28.2518 51.3584 28.2728 50.9805 28.2656 50.6038C28.2625 50.4519 28.2953 50.3736 28.4709 50.3778C28.8816 50.3881 29.2931 50.3874 29.7041 50.3778C29.8713 50.374 29.9198 50.437 29.9167 50.5965C29.9083 50.9961 29.9217 51.3962 29.911 51.7954C29.906 51.9737 29.9622 52.0351 30.1435 52.0301C30.5542 52.0187 30.9664 52.013 31.3763 52.032C31.6061 52.0427 31.6359 51.9431 31.6328 51.7507C31.6252 51.2942 31.6366 50.8377 31.6404 50.3812C32.0855 50.3812 32.5309 50.3744 32.976 50.3828C33.1977 50.387 33.2806 50.2958 33.2775 50.0774C33.2714 49.6324 33.2809 49.1869 33.284 48.7419C33.6019 48.7392 33.9203 48.7369 34.2382 48.7343C34.9966 48.7278 34.9165 48.8175 34.9214 48.0678C34.9237 47.7384 34.9245 47.409 34.9264 47.0796C35.347 47.0823 35.7688 47.109 36.1871 47.0804C36.5165 47.0579 36.5795 47.185 36.5741 47.4835C36.5577 48.4491 36.5684 49.4156 36.5688 50.3816C36.1035 50.3816 35.6379 50.3881 35.1726 50.3774C34.9806 50.3732 34.9142 50.4396 34.9184 50.6316C34.9287 51.0969 34.9222 51.5622 34.9226 52.0279L34.923 52.0282Z" fill="#222222"/>
<path d="M34.9273 47.0797C34.9258 47.4091 34.9246 47.7385 34.9223 48.0679C34.9174 48.8175 34.9975 48.7278 34.2391 48.7343C33.9212 48.737 33.6028 48.7392 33.2849 48.7419L33.2708 48.7289C33.2727 48.2514 33.2628 47.7732 33.2815 47.2965C33.2902 47.0655 33.2078 47.0079 32.991 47.0152C32.5368 47.0308 32.0814 47.0216 31.6265 47.0228V45.3697C32.1043 45.3709 32.5818 45.367 33.0597 45.3754C33.2177 45.3781 33.283 45.3312 33.2792 45.164C33.27 44.7548 33.27 44.3449 33.2792 43.9357C33.283 43.7685 33.2177 43.7216 33.0597 43.7242C32.5822 43.7323 32.1043 43.7288 31.6265 43.73C31.6276 43.1838 31.6288 42.638 31.6303 42.0918C32.0967 42.088 32.5631 42.0757 33.0295 42.0841C33.2246 42.0876 33.2853 42.0223 33.2803 41.8303C33.2681 41.3639 33.2746 40.8971 33.2734 40.4307C33.8242 40.4326 34.3754 40.4349 34.9262 40.4368L34.9201 40.4307C34.9212 40.8975 34.93 41.3643 34.9197 41.8307C34.9155 42.0231 34.9762 42.0883 35.1708 42.0838C35.6372 42.0731 36.104 42.0826 36.5708 42.0838L36.5682 42.0788C36.5686 43.0719 36.5598 44.0651 36.5762 45.0579C36.5804 45.3197 36.5018 45.3922 36.2491 45.3777C35.885 45.3567 35.5185 45.3808 35.1536 45.3693C34.9712 45.3636 34.917 45.4304 34.9208 45.6067C34.9311 46.0972 34.9269 46.5884 34.9284 47.0793L34.9273 47.0797Z" fill="#222222"/>
<path d="M43.231 35.4321C43.2287 36.5283 43.2264 37.6245 43.2245 38.7211C42.8024 38.7207 42.3791 38.7429 41.9592 38.712C41.6264 38.6875 41.5527 38.8211 41.5715 39.1196C41.5936 39.4719 41.5688 39.8265 41.5795 40.1799C41.5852 40.3723 41.515 40.4433 41.3226 40.4368C40.992 40.4261 40.66 40.4509 40.331 40.4292C40.0325 40.4093 39.8989 40.4841 39.9233 40.817C39.9539 41.2368 39.9317 41.6605 39.9325 42.0823C38.8111 42.0815 37.6893 42.0804 36.5679 42.0796L36.5706 42.0846C36.5675 41.5365 36.5645 40.988 36.561 40.4399C37.0061 40.438 37.4511 40.4276 37.8958 40.4372C38.1294 40.4422 38.2271 40.3593 38.2187 40.1196C38.2061 39.7662 38.2263 39.412 38.2126 39.0589C38.2031 38.8116 38.287 38.7043 38.5454 38.7158C38.8756 38.7307 39.208 38.7039 39.5378 38.7238C39.829 38.7414 39.96 38.652 39.9359 38.341C39.9134 38.0459 39.9489 37.7467 39.9264 37.4516C39.9027 37.1409 40.0325 37.0497 40.3245 37.0684C40.6314 37.0883 40.9409 37.0612 41.2482 37.0761C41.5062 37.0886 41.5913 36.9806 41.581 36.7333C41.5673 36.4031 41.5875 36.0714 41.5749 35.7409C41.5657 35.5012 41.6642 35.4169 41.8978 35.4237C42.3425 35.4363 42.7875 35.4302 43.2326 35.4321H43.231Z" fill="#AE9D1A"/>
<path d="M43.231 35.432C42.7859 35.4301 42.3409 35.4362 41.8962 35.4236C41.6626 35.4172 41.5642 35.5015 41.5733 35.7408C41.5859 36.0714 41.5657 36.4031 41.5794 36.7332C41.5897 36.9806 41.5046 37.0886 41.2466 37.076C40.9393 37.0607 40.6298 37.0882 40.3229 37.0683C40.0313 37.0496 39.9012 37.1405 39.9248 37.4516C39.9473 37.7466 39.9118 38.0458 39.9344 38.3409C39.958 38.652 39.8275 38.7413 39.5363 38.7237C39.2065 38.7039 38.8744 38.731 38.5439 38.7157C38.2859 38.7039 38.2015 38.8115 38.211 39.0588C38.2248 39.4119 38.2049 39.7665 38.2171 40.1196C38.2255 40.3593 38.1278 40.4421 37.8942 40.4371C37.4496 40.4276 37.0045 40.4375 36.5595 40.4398C36.0125 40.4367 35.4652 40.4341 34.9182 40.431L34.9243 40.4371C34.9228 39.8661 34.9209 39.2955 34.9194 38.7245C34.9201 38.2791 34.9293 37.8336 34.9182 37.3886C34.9125 37.1504 35.0052 37.0615 35.2404 37.0695C35.5824 37.0813 35.9255 37.0645 36.2679 37.0744C36.4889 37.0806 36.5759 36.9912 36.5698 36.7714C36.5602 36.4176 36.5736 36.0634 36.5663 35.7095C36.5621 35.5053 36.6461 35.4206 36.8507 35.4248C37.2045 35.432 37.5587 35.4187 37.9126 35.4282C38.132 35.434 38.221 35.3481 38.2164 35.1267C38.2068 34.6816 38.2126 34.2362 38.2118 33.7908C38.6885 33.787 39.1656 33.7732 39.6424 33.7843C39.8588 33.7893 39.9428 33.732 39.934 33.5019C39.9168 33.048 39.9279 32.5934 39.9271 32.1392C39.9279 31.6831 39.9401 31.2266 39.9248 30.7713C39.916 30.5045 40.0099 30.4098 40.2794 30.414C41.0886 30.427 41.8981 30.4186 42.7077 30.4186C43.0505 30.4186 43.222 30.2419 43.2222 29.8884C43.2237 28.9651 43.2257 28.0414 43.2272 27.1181C43.6932 27.1208 44.1593 27.1151 44.6249 27.1296C44.8245 27.1357 44.8734 27.0593 44.8719 26.8727C44.8623 25.8612 44.8635 24.8498 44.8608 23.8383C45.2261 23.8368 45.5914 23.8341 45.9562 23.8333C46.3285 23.8326 46.5148 23.6473 46.515 23.2776C46.515 20.2645 46.5196 17.2515 46.5085 14.2385C46.5074 13.9098 46.6032 13.793 46.9349 13.8117C47.3673 13.8362 47.8021 13.8163 48.2357 13.8159C48.7834 13.8159 49.3307 13.8159 49.8785 13.8159V25.4822C49.4334 25.4814 48.988 25.4967 48.5441 25.4742C48.2807 25.4608 48.2223 25.5513 48.2242 25.8017C48.2361 27.3414 48.2311 28.8815 48.2319 30.4216C47.7532 30.4209 47.2738 30.4312 46.7956 30.4148C46.5677 30.4067 46.5078 30.485 46.5101 30.7052C46.5208 31.7312 46.5158 32.7572 46.5166 33.7832C46.0498 33.7824 45.583 33.7896 45.1169 33.7774C44.9234 33.7725 44.8597 33.8362 44.8646 34.0297C44.8768 34.4961 44.8696 34.963 44.8703 35.4294C44.3238 35.4305 43.7768 35.4317 43.2302 35.4328L43.231 35.432ZM42.4096 32.1335C41.8541 32.1335 41.5764 32.4102 41.5764 32.9637C41.5764 33.5077 41.8474 33.7797 42.3894 33.7797C42.9449 33.7797 43.2226 33.503 43.2226 32.9495C43.2226 32.4053 42.9516 32.1331 42.4096 32.1331V32.1335Z" fill="#D5C01A"/>
<path d="M48.2363 13.8159C47.8027 13.8167 47.3679 13.8361 46.9355 13.8117C46.6038 13.793 46.508 13.9098 46.5091 14.2384C46.5202 17.2515 46.5156 20.2645 46.5156 23.2775C46.5156 23.6478 46.3294 23.833 45.9568 23.8333C45.5916 23.834 45.2263 23.8363 44.8614 23.8382C44.4068 23.8367 43.9514 23.8474 43.4976 23.8279C43.2659 23.818 43.2159 23.9016 43.2186 24.1173C43.2304 25.1173 43.2266 26.1177 43.2281 27.1181C43.2262 28.0414 43.2243 28.9651 43.2232 29.8884C43.2227 30.2416 43.0512 30.4183 42.7087 30.4185C41.8991 30.4185 41.0895 30.4269 40.2804 30.414C40.0109 30.4098 39.917 30.5044 39.9258 30.7712C39.9411 31.2266 39.9288 31.6831 39.9281 32.1392C38.8922 32.1373 37.8563 32.1392 36.8208 32.13C36.636 32.1285 36.5566 32.169 36.5646 32.3728C36.5799 32.7591 36.5784 33.1469 36.565 33.5335C36.5582 33.7266 36.6185 33.7885 36.8135 33.7843C37.2795 33.7743 37.7463 33.7873 38.2128 33.7911C38.2135 34.2366 38.2074 34.682 38.2174 35.127C38.2223 35.3484 38.1334 35.4343 37.9135 35.4286C37.5597 35.419 37.2055 35.4324 36.8517 35.4251C36.6471 35.4209 36.5631 35.5061 36.5673 35.7099C36.5746 36.0637 36.5612 36.4179 36.5707 36.7717C36.5765 36.9916 36.4898 37.0813 36.2688 37.0748C35.9265 37.0653 35.5837 37.0817 35.2413 37.0698C35.0062 37.0618 34.9135 37.1508 34.9192 37.3889C34.9303 37.834 34.9211 38.2794 34.9203 38.7248C34.3711 38.7241 33.8218 38.7229 33.273 38.7222C33.2741 38.2779 33.2604 37.8328 33.2817 37.3897C33.294 37.137 33.2256 37.0614 32.9646 37.066C32.042 37.0832 31.1191 37.066 30.1966 37.0775C29.9763 37.0801 29.8996 37.0229 29.9095 36.795C29.9298 36.3404 29.9217 35.8843 29.9256 35.429C30.3676 35.4282 30.8107 35.4106 31.2515 35.432C31.5584 35.4469 31.6477 35.3278 31.6344 35.0366C31.6153 34.6179 31.6302 34.198 31.6309 33.7785L31.6279 33.7816C32.0615 33.7812 32.4955 33.7679 32.9283 33.7846C33.202 33.795 33.2924 33.6881 33.2795 33.4243C33.2634 33.0942 33.2837 32.7625 33.2737 32.4323C33.2672 32.2102 33.3592 32.1255 33.5779 32.1319C33.897 32.1415 34.2176 32.1174 34.5356 32.1388C34.8364 32.159 34.9325 32.0491 34.928 31.7483C34.9127 30.756 34.923 29.7636 34.9234 28.7712L34.9203 28.7742C35.365 28.7735 35.8097 28.7643 36.2539 28.7758C36.4933 28.7819 36.5761 28.6853 36.5711 28.4525C36.562 28.0082 36.5727 27.5635 36.5749 27.1189C37.0303 27.1211 37.486 27.1112 37.9402 27.1314C38.1735 27.1418 38.2212 27.0559 38.2189 26.841C38.2078 25.8394 38.2124 24.8379 38.2116 23.8363L38.2162 23.8318C38.6605 23.8325 39.1055 23.8169 39.5487 23.839C39.8556 23.8543 39.9391 23.7371 39.9349 23.4436C39.9208 22.4527 39.9304 21.4619 39.9307 20.4706L39.9277 20.4737C40.3613 20.4733 40.7957 20.4599 41.2285 20.4767C41.5033 20.4874 41.5831 20.3779 41.5796 20.1156C41.5682 19.2485 41.5819 18.3809 41.5716 17.5133C41.5686 17.2602 41.659 17.1656 41.9109 17.1763C42.2526 17.1904 42.5957 17.1736 42.9381 17.1808C43.1419 17.185 43.227 17.1018 43.2232 16.8969C43.2144 16.4404 43.2171 15.9839 43.2148 15.5274C43.2186 14.9579 43.2224 14.388 43.2266 13.8186L43.2224 13.8228C43.6782 13.8212 44.1335 13.8132 44.5892 13.8205C44.7934 13.8239 44.8767 13.7495 44.8709 13.5418C44.861 13.1777 44.861 12.8128 44.8709 12.4487C44.8767 12.2414 44.7942 12.1659 44.5896 12.1697C44.1343 12.1784 43.6785 12.1723 43.2228 12.172C43.2217 11.6216 43.2205 11.0716 43.2197 10.5212L43.2182 10.5227C43.6629 10.5235 44.1076 10.5162 44.5518 10.5284C44.7885 10.5349 44.8782 10.4441 44.8717 10.2082C44.8591 9.76389 44.8656 9.31923 44.8641 8.87456C44.8641 8.87456 44.8667 8.87532 44.8663 8.87532C45.4164 8.8738 45.9668 8.87189 46.5168 8.87036C47.0885 8.87265 47.6599 8.87494 48.2317 8.87761C48.2328 10.5238 48.2344 12.1704 48.2355 13.8167L48.2363 13.8159Z" fill="#F6DB00"/>
<path d="M43.2212 3.86914C43.7689 3.86914 44.3166 3.86952 44.8644 3.8699C45.4178 3.87219 45.9709 3.8741 46.5243 3.87639C46.5182 4.44816 46.5121 5.01955 46.5064 5.59132C45.9602 5.58941 45.4136 5.58788 44.8674 5.58597C44.3189 5.58635 43.7704 5.58674 43.2216 5.5875V3.86914H43.2212Z" fill="#AE9D1A"/>
<path d="M46.5237 3.87651C45.9703 3.87422 45.4172 3.87231 44.8638 3.87002C44.8649 3.32077 44.8657 2.77152 44.8668 2.22266H48.2325V3.87346C47.6631 3.8746 47.0936 3.87575 46.5237 3.87689V3.87651Z" fill="#D5C01A"/>
<path d="M46.5176 8.86962C45.9676 8.87114 45.4172 8.87305 44.8672 8.87458C44.8718 8.32686 44.8763 7.77952 44.8809 7.23218H46.5046C46.5092 7.77799 46.5134 8.3238 46.518 8.86962H46.5176Z" fill="#F1E050"/>
<path d="M46.5046 7.23226H44.8809C44.8763 6.68378 44.8718 6.13491 44.8672 5.58643C45.4134 5.58833 45.96 5.58986 46.5062 5.59177C46.5058 6.13873 46.505 6.68569 46.5046 7.23264V7.23226Z" fill="#F6DB00"/>
<path d="M10.0131 43.7342C9.04173 43.7315 8.07034 43.7212 7.09932 43.7319C6.8184 43.735 6.70733 43.6464 6.72374 43.3598C6.74283 43.0296 6.73405 42.6971 6.7268 42.3658C6.72221 42.1628 6.80313 42.075 7.00963 42.0792C7.36383 42.0868 7.71842 42.0731 8.07224 42.0826C8.29133 42.0884 8.38103 42.004 8.37683 41.7819C8.36843 41.3364 8.37683 40.8906 8.37798 40.4448C8.84364 40.441 9.30968 40.4288 9.77495 40.4379C9.97152 40.4418 10.0284 40.3723 10.0238 40.183C10.0127 39.6944 10.0189 39.2058 10.0185 38.7169C11.6868 38.715 13.3548 38.7131 15.0232 38.7112C15.0251 39.2856 15.027 39.8601 15.0289 40.4345C15.0289 40.9849 15.0289 41.5349 15.0289 42.0853L15.0331 42.0811C14.4602 42.0811 13.8869 42.0811 13.314 42.0811C12.3357 42.0811 11.3574 42.0872 10.3795 42.0765C10.1215 42.0739 10.0047 42.1464 10.0169 42.4235C10.0356 42.8548 10.0261 43.2876 10.0284 43.7197L10.0135 43.7342H10.0131Z" fill="#D5C01A"/>
<path d="M15.0287 40.4347C15.0268 39.8602 15.0249 39.2858 15.0229 38.7113C15.0241 38.1644 15.0252 37.6178 15.026 37.0709C16.6722 37.0686 18.3188 37.0663 19.965 37.064C20.4212 37.0667 20.8773 37.064 21.3334 37.0747C21.5387 37.0792 21.62 36.9983 21.6155 36.7926C21.6052 36.3369 21.6074 35.8804 21.6048 35.4243C21.6071 34.8754 21.6094 34.3269 21.612 33.778C22.7323 33.7757 23.8529 33.7735 24.9732 33.7712C25.4159 33.7742 25.8591 33.7658 26.3014 33.7841C26.5652 33.7948 26.6327 33.6803 26.6251 33.4399C26.6121 33.0085 26.6217 32.5769 26.6217 32.1456C27.0889 32.1417 27.556 32.1288 28.0229 32.1383C28.2183 32.1425 28.2771 32.081 28.2721 31.8875C28.2591 31.3978 28.2668 30.9074 28.2664 30.4173C28.8152 30.415 29.3637 30.4127 29.9126 30.4104C30.4847 30.4131 31.0565 30.4157 31.6287 30.4184L31.6302 30.4199C31.6294 31.5406 31.6287 32.6612 31.6283 33.7822L31.6313 33.7792C31.063 33.7792 30.4943 33.7784 29.9259 33.778C29.4618 33.6318 28.9851 33.754 28.5168 33.7101C28.3251 33.6922 28.2603 33.7574 28.2641 33.9551C28.274 34.4445 28.261 34.9345 28.2572 35.4243C27.8122 35.4254 27.3671 35.433 26.9221 35.4243C26.7018 35.4201 26.6156 35.5063 26.6194 35.7269C26.6278 36.1716 26.6201 36.617 26.6194 37.0621C26.074 37.0674 25.5289 37.0728 24.9835 37.0781C24.5384 37.0766 24.0934 37.0827 23.6483 37.0701C23.414 37.0636 23.3193 37.1499 23.3258 37.3884C23.338 37.8331 23.3308 38.2785 23.3315 38.7236L23.3331 38.722C21.2445 38.7213 19.1555 38.7251 17.0669 38.714C16.7749 38.7125 16.6539 38.79 16.6692 39.0991C16.6913 39.543 16.6745 39.9892 16.6741 40.4343H15.0287V40.4347Z" fill="#F6DB00"/>
<path d="M21.6048 35.4245C21.6075 35.8806 21.6048 36.3367 21.6155 36.7928C21.6201 36.9982 21.5388 37.0795 21.3335 37.0749C20.8777 37.0646 20.4212 37.0669 19.9651 37.0642C19.9651 36.5176 19.9647 35.9706 19.9644 35.4241C20.5109 35.4241 21.0579 35.4245 21.6045 35.4248L21.6048 35.4245Z" fill="#F1E050"/>
<path d="M26.6219 32.1451C26.6219 32.5768 26.6124 33.0085 26.6254 33.4394C26.6326 33.6799 26.5654 33.7948 26.3017 33.7837C25.8597 33.7658 25.4162 33.7738 24.9734 33.7707C24.9734 33.2241 24.973 32.6772 24.9727 32.1306C25.5223 32.1352 26.0719 32.1402 26.6219 32.1447V32.1451Z" fill="#F1E050"/>
<path d="M38.2133 15.5309C38.7847 15.5309 39.3561 15.5302 39.9271 15.5298L39.9317 15.5344C39.9305 17.1806 39.9294 18.8268 39.9286 20.473L39.9317 20.47C39.4874 20.4704 39.0424 20.4868 38.5992 20.4658C38.2965 20.4516 38.2049 20.56 38.2095 20.8581C38.2252 21.849 38.2164 22.8399 38.2172 23.8307L38.2126 23.8353C37.6656 23.8372 37.1183 23.8391 36.5713 23.841C36.0255 23.838 35.4801 23.8353 34.9343 23.8323C34.9297 23.2601 34.9255 22.6876 34.9209 22.1154C35.3774 22.1162 35.8343 22.1047 36.29 22.1223C36.5171 22.1311 36.5763 22.057 36.574 21.8353C36.5622 20.831 36.5679 19.8268 36.5671 18.8226C37.0236 18.8234 37.4805 18.8119 37.9362 18.8295C38.1633 18.8383 38.2225 18.7642 38.2202 18.5424C38.2084 17.5382 38.2141 16.534 38.2133 15.5298V15.5309Z" fill="#F6DB00"/>
<path d="M33.2733 27.117C33.2733 26.5704 33.2733 26.0235 33.2729 25.4769C33.8211 25.4761 34.3692 25.4754 34.9169 25.4746L34.9264 25.4842C34.9237 26.0315 34.9211 26.5788 34.9184 27.1258L34.9215 27.1231C34.3722 27.1212 33.8226 27.1189 33.2733 27.117Z" fill="#F1E050"/>
<path d="M34.9334 23.833C35.4792 23.8361 36.0247 23.8387 36.5705 23.8418C36.5659 24.3876 36.5613 24.9334 36.5567 25.4796C36.0132 25.4811 35.4701 25.4827 34.9265 25.4842L34.917 25.4746C34.9223 24.9273 34.9281 24.3803 34.9334 23.833Z" fill="#F1E050"/>
<path d="M44.8641 8.87392C44.8656 9.31858 44.8591 9.76325 44.8717 10.2075C44.8782 10.4434 44.7885 10.5343 44.5519 10.5278C44.1076 10.5159 43.6629 10.5228 43.2183 10.522C43.219 9.97356 43.2198 9.42469 43.2202 8.87621C43.7683 8.87544 44.316 8.8743 44.8641 8.87354V8.87392Z" fill="#D5C01A"/>
<path d="M43.2201 10.5208C43.2212 11.0711 43.2223 11.6212 43.2231 12.1716C43.2231 12.7219 43.2231 13.272 43.2231 13.8224L43.2273 13.8182C42.6762 13.8189 42.125 13.8197 41.5742 13.8201L41.5765 13.8174C41.5757 12.7193 41.575 11.6208 41.5746 10.5227C42.1231 10.5219 42.672 10.5211 43.2204 10.5208H43.2201Z" fill="#D5C01A"/>
<path d="M39.9272 15.5299C39.9272 14.9586 39.928 14.3872 39.9284 13.8162C40.4776 13.8165 41.0273 13.8173 41.5765 13.8177L41.5742 13.8204C41.575 14.391 41.5761 14.9616 41.5769 15.5322C41.0288 15.533 40.4803 15.5338 39.9322 15.5345L39.9276 15.5299H39.9272Z" fill="#F6DB00"/>
<path d="M33.2737 27.1169C33.8229 27.1189 34.3726 27.1211 34.9218 27.1231C34.9214 27.6731 34.9211 28.2235 34.9207 28.7735L34.9237 28.7704C34.5008 28.7708 34.0771 28.7884 33.6554 28.7662C33.3443 28.7498 33.2508 28.8735 33.2718 29.1658C33.2913 29.4388 33.2538 29.7162 33.2813 29.988C33.318 30.3483 33.1672 30.446 32.8298 30.4247C32.4313 30.3991 32.0302 30.4189 31.6301 30.4193L31.6286 30.4178C31.6259 29.8685 31.6233 29.3193 31.6206 28.7704C31.6229 28.2215 31.6252 27.6731 31.6279 27.1242C32.1767 27.1219 32.7252 27.1196 33.2741 27.1173L33.2737 27.1169Z" fill="#F6DB00"/>
<path d="M31.6204 28.7705C31.6231 29.3198 31.6258 29.869 31.6285 30.4179C31.0563 30.4152 30.4842 30.4126 29.9124 30.4099C29.9124 29.8633 29.912 29.3164 29.9116 28.7698C30.4811 28.7698 31.0506 28.7702 31.6204 28.7705Z" fill="#F1E050"/>
<path d="M24.9682 52.0347C24.9712 52.582 24.9743 53.1294 24.9773 53.6767C24.5109 53.6756 24.0445 53.6668 23.5784 53.6771C23.3853 53.6813 23.3212 53.6172 23.3254 53.424C23.3357 52.958 23.3269 52.4916 23.3258 52.0251C23.8731 52.0282 24.4205 52.0313 24.9678 52.0343L24.9682 52.0347Z" fill="#3A3B31"/>
<path d="M13.3153 43.7223C13.3153 44.2727 13.3145 44.8231 13.3141 45.3734C13.3141 45.8074 13.3046 46.2418 13.3172 46.6754C13.3241 46.9178 13.2519 47.0269 12.9889 47.0239C12.1099 47.0128 11.2301 47.0128 10.3511 47.0239C10.0938 47.0269 10.0156 46.9281 10.0175 46.6807C10.0244 45.6986 10.0163 44.7166 10.0137 43.7345L10.0286 43.72C11.1251 43.7223 12.2221 43.7246 13.3187 43.7265L13.3157 43.7226L13.3153 43.7223Z" fill="#D5C01A"/>
<path d="M24.9833 37.078C25.5287 37.0727 26.0738 37.0673 26.6192 37.062C27.0974 37.0654 27.5753 37.0647 28.0536 37.075C28.2158 37.0784 28.2738 37.0204 28.2704 36.8582C28.2601 36.3803 28.2608 35.902 28.2574 35.4238C28.2612 34.9341 28.2742 34.444 28.2643 33.9547C28.2605 33.7569 28.3253 33.6917 28.5169 33.7096C28.9853 33.7535 29.462 33.6314 29.9261 33.7776V35.4291C29.9223 35.8845 29.9303 36.3406 29.9101 36.7952C29.8998 37.0231 29.9769 37.0807 30.1971 37.0776C31.1197 37.0662 32.0426 37.0834 32.9651 37.0662C33.2262 37.0612 33.2945 37.1372 33.2823 37.3899C33.2606 37.833 33.2743 38.278 33.2735 38.7223L33.28 38.7162C32.2537 38.7174 31.2269 38.7242 30.2006 38.7147C29.98 38.7128 29.9032 38.7731 29.9105 39.0006C29.9258 39.4792 29.9132 39.9586 29.9124 40.4376L29.9189 40.4311C29.3681 40.4311 28.8173 40.4319 28.2669 40.4323L28.2715 40.4353C28.2708 39.9563 28.2585 39.4773 28.2746 38.999C28.2822 38.77 28.2024 38.7128 27.9837 38.7147C26.9807 38.7239 25.9772 38.7174 24.9741 38.7162L24.9798 38.7223C24.9814 38.1742 24.9833 37.6261 24.9848 37.078H24.9833Z" fill="#3A3B31"/>
<path d="M24.9727 38.7161C24.9734 39.2058 24.9662 39.6955 24.978 40.1852C24.9826 40.3783 24.9211 40.4432 24.7265 40.4379C24.2601 40.4253 23.7929 40.4321 23.3257 40.431L23.3318 40.4371C23.3322 39.8653 23.3326 39.2936 23.3329 38.7218L23.3314 38.7233C23.8803 38.7229 24.4291 38.7226 24.978 38.7222L24.9723 38.7161H24.9727Z" fill="#3A3B31"/>
<path d="M21.6094 42.0826C21.6128 41.5337 21.6162 40.9849 21.6197 40.436C22.1903 40.436 22.7613 40.4368 23.3319 40.4368L23.3258 40.4307C23.327 40.8978 23.3201 41.3654 23.3327 41.8322C23.338 42.0273 23.2724 42.0879 23.0796 42.0838C22.5899 42.0731 22.0995 42.0815 21.6098 42.0822L21.6094 42.0826Z" fill="#3A3B31"/>
<path d="M23.332 40.4373C22.7614 40.4373 22.1904 40.4366 21.6197 40.4366C20.6518 40.4358 19.6834 40.4476 18.7159 40.4278C18.3895 40.4213 18.2975 40.5415 18.3166 40.845C18.3368 41.1625 18.3147 41.4824 18.3223 41.8011C18.3273 42.0076 18.2365 42.0858 18.0353 42.082C17.58 42.0736 17.1242 42.0759 16.6689 42.0736C16.6708 41.5274 16.6723 40.9808 16.6742 40.4346C16.6742 39.9896 16.691 39.5434 16.6692 39.0995C16.654 38.7903 16.775 38.7129 17.067 38.7144C19.1556 38.7251 21.2445 38.7212 23.3331 38.7224C23.3328 39.2942 23.3324 39.8659 23.332 40.4377V40.4373Z" fill="#D5C01A"/>
<path d="M13.314 42.0811C13.8869 42.0811 14.4602 42.0811 15.0331 42.0811C15.0316 42.5368 15.0232 42.9929 15.0308 43.4486C15.0342 43.654 14.9575 43.7338 14.751 43.7296C14.2724 43.7196 13.7937 43.7242 13.3151 43.7231L13.3182 43.7269C13.3166 43.1784 13.3151 42.6299 13.314 42.0814V42.0811Z" fill="#AE9D1A"/>
<path d="M16.6743 40.4345C16.6724 40.9807 16.6708 41.5272 16.6689 42.0734C16.122 42.0772 15.5754 42.0811 15.0288 42.0849C15.0288 41.5349 15.0288 40.9845 15.0288 40.4341H16.6743V40.4345Z" fill="#AE9D1A"/>
<path d="M24.9785 50.3748C25.4438 50.377 25.9095 50.3873 26.3743 50.3774C26.566 50.3732 26.6305 50.4316 26.6263 50.6267C26.6156 51.0916 26.6263 51.5572 26.6282 52.0225C26.082 52.0194 25.5362 52.0164 24.99 52.0133C24.9861 51.4671 24.9823 50.921 24.9785 50.3748Z" fill="#222222"/>
<path d="M31.6409 50.3813C31.6359 49.8313 31.6309 49.2813 31.626 48.7313C32.1741 48.7305 32.7222 48.7298 33.2703 48.729L33.2844 48.742C33.2814 49.187 33.2718 49.6325 33.2779 50.0775C33.281 50.2958 33.1981 50.3871 32.9764 50.3829C32.5313 50.3745 32.0859 50.3809 31.6409 50.3813Z" fill="#222222"/>
<path d="M31.63 42.0918C31.0582 42.0841 30.4868 42.0765 29.9151 42.0689C29.9162 41.5227 29.9173 40.9769 29.9181 40.4307L29.9116 40.4371C31.0342 40.4371 32.1567 40.4371 33.2793 40.4371L33.2728 40.431C33.2739 40.8975 33.2674 41.3643 33.2796 41.8307C33.2846 42.0227 33.2239 42.088 33.0289 42.0845C32.5628 42.0757 32.096 42.0883 31.6296 42.0922L31.63 42.0918Z" fill="#3A3B31"/>
<path d="M33.2728 38.7222C33.8221 38.7229 34.3713 38.7241 34.9202 38.7248C34.9217 39.2958 34.9236 39.8665 34.9252 40.4375C34.3744 40.4352 33.8232 40.4333 33.2725 40.4314L33.279 40.4375C33.279 39.8638 33.279 39.2897 33.279 38.7161L33.2725 38.7222H33.2728Z" fill="#3A3B31"/>
<path d="M33.2703 48.7289C32.7222 48.7296 32.1741 48.7304 31.626 48.7312L31.6332 48.738V47.0162L31.626 47.0231C32.0809 47.022 32.5359 47.0308 32.9905 47.0155C33.2077 47.0082 33.2901 47.0659 33.281 47.2968C33.2623 47.7739 33.2722 48.2518 33.2703 48.7293V48.7289Z" fill="#222222"/>
<path d="M34.919 40.4309C35.466 40.434 36.0133 40.4366 36.5603 40.4397C36.5634 40.9878 36.5664 41.5363 36.5698 42.0844C36.103 42.0829 35.6362 42.0737 35.1698 42.0844C34.9751 42.089 34.9145 42.0233 34.9187 41.8313C34.929 41.3649 34.9202 40.8981 34.919 40.4313V40.4309Z" fill="#3A3B31"/>
<path d="M31.626 43.7306C32.1038 43.7295 32.5813 43.7333 33.0592 43.7249C33.2172 43.7222 33.2825 43.7692 33.2787 43.9363C33.2695 44.3455 33.2695 44.7554 33.2787 45.1646C33.2825 45.3318 33.2172 45.3787 33.0592 45.3761C32.5817 45.368 32.1038 45.3715 31.626 45.3703L31.6332 45.3772V43.7241L31.626 43.731V43.7306Z" fill="#222222"/>
<path d="M38.2131 33.7913C37.7467 33.7875 37.2799 33.7745 36.8139 33.7844C36.6184 33.7886 36.5585 33.7268 36.5654 33.5336C36.5787 33.147 36.5803 32.7592 36.565 32.3729C36.557 32.1691 36.6364 32.1286 36.8211 32.1302C37.857 32.1393 38.8925 32.1374 39.9284 32.1393C39.9292 32.5935 39.9181 33.0485 39.9353 33.502C39.9441 33.7321 39.8601 33.7894 39.6437 33.7844C39.1674 33.7733 38.6902 33.7875 38.2131 33.7909V33.7913Z" fill="#3A3B31"/>
<path d="M43.2279 27.1183C43.2264 26.1179 43.2302 25.1179 43.2184 24.1175C43.2157 23.9018 43.2657 23.8183 43.4974 23.8282C43.9512 23.8476 44.4066 23.837 44.8611 23.8385C44.8638 24.85 44.8627 25.8614 44.8722 26.8729C44.8741 27.0595 44.8249 27.1359 44.6253 27.1298C44.1596 27.1153 43.6936 27.121 43.2275 27.1183H43.2279Z" fill="#3A3B31"/>
<path d="M42.4094 32.1335C42.9514 32.1335 43.2224 32.4057 43.2224 32.95C43.2224 33.5034 42.9446 33.7801 42.3892 33.7801C41.8472 33.7801 41.5762 33.5081 41.5762 32.9641C41.5762 32.4106 41.8539 32.1339 42.4094 32.1339V32.1335Z" fill="#3A3B31"/>
<path d="M31.6298 30.4194C32.0298 30.4194 32.431 30.3995 32.8295 30.4247C33.1669 30.4461 33.3177 30.3484 33.281 29.9881C33.2535 29.7167 33.2909 29.4388 33.2715 29.1659C33.2505 28.8735 33.344 28.7502 33.6551 28.7663C34.0768 28.7884 34.5005 28.7709 34.9234 28.7705C34.923 29.7629 34.9127 30.7556 34.928 31.7476C34.9326 32.0484 34.8368 32.1579 34.5356 32.1381C34.2177 32.1167 33.8971 32.1412 33.578 32.1312C33.3593 32.1247 33.2673 32.2095 33.2738 32.4316C33.2837 32.7622 33.2635 33.0938 33.2795 33.4236C33.2921 33.6874 33.2016 33.7942 32.9283 33.7839C32.4955 33.7675 32.0615 33.7805 31.6279 33.7809C31.6287 32.6602 31.6295 31.5396 31.6298 30.4186V30.4194Z" fill="#D5C01A"/>
<path d="M39.9317 15.5347C40.4798 15.534 41.0282 15.5332 41.5764 15.5324C42.1225 15.5305 42.6691 15.529 43.2153 15.5271C43.2176 15.9836 43.2153 16.4401 43.2237 16.8966C43.2275 17.1016 43.1424 17.1848 42.9386 17.1806C42.5962 17.1733 42.2535 17.1901 41.9115 17.176C41.6596 17.1657 41.5691 17.26 41.5722 17.513C41.5825 18.3802 41.5687 19.2478 41.5802 20.1154C41.5836 20.3776 41.5038 20.4871 41.229 20.4764C40.7958 20.4597 40.3618 20.473 39.9282 20.4734C39.9294 18.8272 39.9305 17.181 39.9313 15.5347H39.9317Z" fill="#D5C01A"/>
<path d="M38.2173 23.8315C38.2165 22.8406 38.2257 21.8494 38.2096 20.8589C38.2051 20.5608 38.2967 20.4524 38.5993 20.4665C39.0425 20.4875 39.4875 20.4711 39.9318 20.4707C39.9314 21.4616 39.9219 22.4528 39.936 23.4437C39.9402 23.7372 39.8566 23.8548 39.5497 23.8391C39.1066 23.817 38.6616 23.8323 38.2173 23.8319V23.8315Z" fill="#D5C01A"/>
<path d="M36.5571 25.4797C36.5617 24.9339 36.5663 24.3877 36.5709 23.8419C37.1178 23.84 37.6652 23.8381 38.2121 23.8362C38.2133 24.8377 38.2087 25.8393 38.2194 26.8408C38.2217 27.0553 38.174 27.1416 37.9407 27.1313C37.4865 27.1111 37.0308 27.121 36.5755 27.1187L36.5785 27.1221C36.5716 26.5748 36.5644 26.0271 36.5575 25.4797H36.5571Z" fill="#3A3B31"/>
<path d="M29.9258 35.4289V33.7773C30.4941 33.7773 31.0628 33.7781 31.6312 33.7785C31.6308 34.198 31.6155 34.6178 31.6346 35.0365C31.648 35.3278 31.5586 35.4468 31.2518 35.432C30.8109 35.4106 30.3678 35.4281 29.9258 35.4289Z" fill="#D5C01A"/>
<path d="M43.2154 15.527C42.6692 15.5289 42.1226 15.5305 41.5764 15.5324C41.5756 14.9618 41.5745 14.3911 41.5737 13.8205C42.1249 13.8197 42.676 13.819 43.2268 13.8186C43.223 14.3881 43.2192 14.9579 43.215 15.5274L43.2154 15.527Z" fill="#AE9D1A"/>
<path d="M43.2226 13.8224C43.2226 13.272 43.2226 12.722 43.2226 12.1716C43.6783 12.1716 44.134 12.1781 44.5894 12.1693C44.794 12.1655 44.8764 12.2407 44.8707 12.4483C44.8608 12.8125 44.8608 13.1774 44.8707 13.5415C44.8764 13.7491 44.7936 13.8236 44.589 13.8201C44.1336 13.8125 43.6779 13.8205 43.2222 13.8224H43.2226Z" fill="#AE9D1A"/>
<path d="M34.9209 28.7741C34.9209 28.2241 34.9216 27.6737 34.922 27.1237L34.9189 27.1264C35.472 27.1252 36.0251 27.1237 36.5781 27.1226L36.5751 27.1191C36.5728 27.5638 36.5621 28.0085 36.5713 28.4528C36.5762 28.6856 36.4934 28.7822 36.2541 28.776C35.8098 28.7646 35.3651 28.7738 34.9205 28.7745L34.9209 28.7741Z" fill="#D5C01A"/>
<path d="M13.3144 42.0812C13.3159 42.6297 13.3174 43.1781 13.3186 43.7266C12.222 43.7243 11.125 43.7224 10.0284 43.7201C10.0261 43.2881 10.0361 42.8552 10.017 42.4239C10.0048 42.1468 10.1219 42.0743 10.3796 42.077C11.3575 42.0873 12.3357 42.0816 13.314 42.0816L13.3144 42.0812Z" fill="#F6DB00"/>
<path d="M28.2576 35.4241C28.261 35.9023 28.2603 36.3802 28.2706 36.8585C28.274 37.0207 28.216 37.0787 28.0538 37.0753C27.5759 37.0649 27.0976 37.0657 26.6198 37.0623C26.6209 36.6172 26.6286 36.1722 26.6198 35.7271C26.6156 35.5069 26.7018 35.4206 26.9225 35.4245C27.3671 35.4329 27.8125 35.4252 28.2576 35.4245V35.4241Z" fill="#D5C01A"/>
<path d="M24.9783 38.7222C24.4295 38.7226 23.8806 38.723 23.3317 38.7234C23.331 38.2783 23.3382 37.8329 23.326 37.3882C23.3195 37.1497 23.4138 37.0634 23.6485 37.0699C24.0932 37.0821 24.5386 37.0764 24.9837 37.0779C24.9821 37.626 24.9802 38.1741 24.9787 38.7222H24.9783Z" fill="#D5C01A"/>
<path d="M36.5781 27.1221C36.0251 27.1233 35.472 27.1248 34.9189 27.126C34.9216 26.5786 34.9243 26.0313 34.927 25.4843C35.4705 25.4828 36.0136 25.4813 36.5571 25.4797C36.564 26.0271 36.5713 26.5748 36.5781 27.1221Z" fill="#F6DB00"/>
<path d="M31.6331 47.0162V48.738C30.6071 48.7369 29.5811 48.7304 28.5555 48.7388C28.3402 48.7407 28.2521 48.6914 28.2631 48.4578C28.2818 48.0712 28.2818 47.6823 28.2631 47.2956C28.2521 47.0624 28.3399 47.0132 28.5555 47.0147C29.5815 47.0235 30.6071 47.0166 31.6331 47.0154V47.0162Z" fill="#222222"/>
<path d="M31.6332 43.7234V45.3765C30.6072 45.3753 29.5817 45.3688 28.5557 45.3772C28.3404 45.3791 28.2515 45.3299 28.2633 45.0967C28.2824 44.7329 28.2824 44.3669 28.2633 44.0028C28.2511 43.7692 28.3404 43.7203 28.5557 43.7222C29.5813 43.731 30.6072 43.7241 31.6332 43.723V43.7234Z" fill="#222222"/>
<path d="M29.918 40.4309C29.9168 40.9771 29.9157 41.5229 29.9149 42.0691C29.4481 42.0729 28.9813 42.0691 28.5153 42.084C28.3202 42.0905 28.2603 42.0252 28.2649 41.8325C28.276 41.366 28.2672 40.8989 28.266 40.432C28.8168 40.432 29.3676 40.4313 29.918 40.4309Z" fill="#222222"/>
<path d="M33.2792 38.7162C33.2792 39.2898 33.2792 39.8639 33.2792 40.4376C32.1566 40.4376 31.0341 40.4376 29.9116 40.4376C29.9127 39.9586 29.9249 39.4792 29.9096 39.0005C29.9024 38.773 29.9787 38.7127 30.1997 38.7146C31.2261 38.7238 32.2528 38.7169 33.2792 38.7162Z" fill="#222222"/>
<path d="M23.9077 50.4368L26.235 52.5526L32.1592 52.9757V41.9738H30.0434L29.8318 40.2812H28.3508L26.8698 40.0696L25.3887 41.1275L24.3309 43.0316V47.2632L23.9077 50.4368Z" fill="#222222"/>
<path d="M25.3887 45.1833L26.7406 43.6665H32.5823L31.2303 45.1833H25.3887Z" fill="white"/>
<path d="M25.3887 49.1677L26.7406 47.6509H32.5823L31.2303 49.1677H25.3887Z" fill="white"/>
<path d="M26.7406 47.1701L25.3887 45.6533H31.2303L32.5823 47.1701H26.7406Z" fill="white"/>
</svg>
