<svg width="21" height="17" viewBox="0 0 21 17" fill="none" xmlns="http://www.w3.org/2000/svg">
<path fill-rule="evenodd" clip-rule="evenodd" d="M0 11.0437V6.04368C0 5.4914 0.447715 5.04368 1 5.04368H4.25245C4.51767 5.04368 4.77202 4.93832 4.95956 4.75079L8.79289 0.917457C9.42286 0.287493 10.5 0.733656 10.5 1.62456V15.4628C10.5 16.3537 9.42286 16.7999 8.79289 16.1699L4.95956 12.3366C4.77202 12.149 4.51767 12.0437 4.25245 12.0437H0.999999C0.447714 12.0437 0 11.596 0 11.0437ZM13.0239 4.75659C12.5832 4.19708 12.7084 3.2963 13.3656 3.02166C13.7138 2.87616 14.1191 2.95241 14.3655 3.23815C15.6083 4.67929 16.355 6.52778 16.355 8.5434C16.355 10.6344 15.5514 12.5456 14.2239 14.0087C13.9737 14.2845 13.573 14.3523 13.2313 14.2044C12.5739 13.9198 12.4649 13.0075 12.9222 12.4561C13.8242 11.3683 14.355 10.0017 14.355 8.5434C14.355 7.14085 13.864 5.82306 13.0239 4.75659ZM17.3355 15.9808C16.7013 15.7063 16.5521 14.8673 16.9788 14.3236C18.2523 12.7013 19 10.6936 19 8.54349C19 6.47051 18.305 4.52991 17.1138 2.93938C16.7017 2.38915 16.8646 1.5594 17.4989 1.29433C17.8805 1.13483 18.3246 1.23415 18.5792 1.56017C20.0996 3.50718 21 5.92456 21 8.54349C21 11.2569 20.0334 13.754 18.4122 15.7358C18.1527 16.0529 17.7116 16.1436 17.3355 15.9808Z" fill="white"/>
</svg>
