<svg width="16" height="17" viewBox="0 0 16 17" fill="none" xmlns="http://www.w3.org/2000/svg">
    <path
        d="M1.41839 9.54328L1.5231 9.57959L1.5307 9.57959L3.974 10.3921L3.97406 10.3921C4.91603 10.7053 5.65361 11.443 5.96674 12.3854L5.96692 12.3859L6.81614 14.9342L6.8161 14.9342L6.81868 14.9417C6.89594 15.1646 7.04072 15.3579 7.23292 15.4947C7.42513 15.6315 7.65521 15.7051 7.89116 15.7051C8.12711 15.7051 8.35719 15.6315 8.5494 15.4947L8.1679 14.9588L8.5494 15.4947C8.7416 15.3579 8.88638 15.1646 8.96364 14.9417L8.96368 14.9417L8.9661 14.9344L9.81532 12.3894L9.81552 12.3888C9.96997 11.9244 10.2305 11.5025 10.5765 11.1565C10.9224 10.8104 11.3442 10.5498 11.8084 10.3954L11.8088 10.3952L14.3565 9.54582L14.3565 9.54586L14.3639 9.54328C14.5869 9.46597 14.7801 9.32111 14.9169 9.1289C15.0537 8.93667 15.1271 8.70661 15.1271 8.47072C15.1271 8.23482 15.0537 8.00476 14.9169 7.81254C14.7801 7.62031 14.5868 7.47546 14.3639 7.39816L14.3639 7.39811L14.3565 7.39562L11.8088 6.54618L11.8084 6.54606C11.3442 6.3916 10.9224 6.13101 10.5765 5.78498C10.2305 5.43895 9.96997 5.01699 9.81552 4.55261L9.8154 4.55224L8.96618 2.00394L8.96622 2.00393L8.96364 1.99648C8.88638 1.77358 8.7416 1.58027 8.5494 1.44345C8.3572 1.30663 8.12712 1.23308 7.89116 1.23308C7.6552 1.23308 7.42512 1.30663 7.23292 1.44345C7.04072 1.58027 6.89594 1.77358 6.81868 1.99648L6.81863 1.99647L6.81614 2.00394L5.96692 4.55224L5.96674 4.55278C5.65362 5.49512 4.91603 6.23284 3.97406 6.546L3.97351 6.54618L1.42586 7.39562L1.42584 7.39557L1.4184 7.39816C1.19547 7.47546 1.0022 7.62031 0.865425 7.81254C0.728654 8.00476 0.655171 8.23482 0.655171 8.47072C0.655171 8.70662 0.728654 8.93667 0.865425 9.12889C1.00219 9.32112 1.19546 9.46597 1.41839 9.54328Z"
        fill="white"
        stroke="black"
        stroke-width="1.31563"
    />
</svg>