<svg width="34" height="12" viewBox="0 0 34 12" fill="none" xmlns="http://www.w3.org/2000/svg">
<path d="M33.7464 1.10254H23.2554V11.5936H33.7464V1.10254Z" fill="#C5C3C5"/>
<path d="M33.6141 1.23452V11.4647H23.3839V1.23452H33.6141ZM33.8749 0.973633H23.1265V11.7221H33.8749V0.973633Z" fill="#1D1D1B"/>
<path d="M24.1669 10.6925L23.7529 11.1064V1.60327H33.2561L32.8422 2.01721H24.1669V10.6925Z" fill="#DDDDDD"/>
<path d="M23.951 11.357H23.5405V1.3877H33.5063V1.80163H23.951V11.357Z" fill="#F4F4F4"/>
<path d="M33.4053 11.2526H23.6064L24.0134 10.8457H32.9948V1.86426L33.4053 1.45728V11.2526Z" fill="#939393"/>
<path d="M33.6244 11.4752H23.3838L23.7943 11.0648H33.2174V1.6416L33.6244 1.23462V11.4752Z" fill="#3A3A3A"/>
<path d="M25.937 8.95679L30.9843 3.81909" stroke="#1D1D1B" stroke-width="0.57393" stroke-miterlimit="10"/>
<path d="M31.1063 8.9253L26.0625 3.7876" stroke="#1D1D1B" stroke-width="0.57393" stroke-miterlimit="10"/>
<path d="M22.5287 1.10254H12.0376V11.5936H22.5287V1.10254Z" fill="#C5C3C5"/>
<path d="M22.3963 1.23452V11.4647H12.1661V1.23452H22.3963ZM22.6572 0.973633H11.9087V11.7221H22.6572V0.973633Z" fill="#1D1D1B"/>
<path d="M12.9486 10.6925L12.5347 11.1064V1.60327H22.0378L21.6239 2.01721H12.9486V10.6925Z" fill="#DDDDDD"/>
<path d="M12.7333 11.357H12.3193V1.3877H22.2886V1.80163H12.7333V11.357Z" fill="#F4F4F4"/>
<path d="M22.1841 11.2526H12.3887L12.7956 10.8457H21.7771V1.86426L22.1841 1.45728V11.2526Z" fill="#939393"/>
<path d="M22.4066 11.4752H12.166L12.5765 11.0648H21.9997V1.6416L22.4066 1.23462V11.4752Z" fill="#3A3A3A"/>
<path d="M19.8224 5.15137H14.7891V8.95333H19.8224V5.15137Z" stroke="#1D1D1B" stroke-width="0.57393" stroke-miterlimit="10"/>
<path d="M14.4448 4H20.2226" stroke="#1D1D1B" stroke-width="0.57393" stroke-miterlimit="10"/>
<path d="M11.3104 1.10254H0.819336V11.5936H11.3104V1.10254Z" fill="#C5C3C5"/>
<path d="M11.1785 1.23452V11.4647H0.948321V1.23452H11.1785ZM11.4394 0.973633H0.690918V11.7221H11.4394V0.973633Z" fill="#1D1D1B"/>
<path d="M1.73083 10.6925L1.31689 11.1064V1.60327H10.8201L10.4061 2.01721H1.73083V10.6925Z" fill="#DDDDDD"/>
<path d="M1.51501 11.357H1.10107V1.3877H11.0704V1.80163H1.51501V11.357Z" fill="#F4F4F4"/>
<path d="M10.9663 11.2526H1.1709L1.57787 10.8457H10.5593V1.86426L10.9663 1.45728V11.2526Z" fill="#939393"/>
<path d="M11.1889 11.4752H0.948242L1.35872 11.0648H10.7819V1.6416L11.1889 1.23462V11.4752Z" fill="#3A3A3A"/>
<path d="M3.5708 8.95312H8.60413" stroke="#1D1D1B" stroke-width="0.57393" stroke-miterlimit="10"/>
</svg>
